<?xml version="1.0" encoding="utf-8"?>
<!-- Generator: Adobe Illustrator 16.2.1, SVG Export Plug-In . SVG Version: 6.00 Build 0)  -->
<!DOCTYPE svg PUBLIC "-//W3C//DTD SVG 1.1//EN" "http://www.w3.org/Graphics/SVG/1.1/DTD/svg11.dtd">
<svg version="1.1" id="Layer_1" xmlns="http://www.w3.org/2000/svg" xmlns:xlink="http://www.w3.org/1999/xlink" x="0px" y="0px"
	 width="1179.139px" height="44px" viewBox="0 0 1179.139 44" enable-background="new 0 0 1179.139 44" xml:space="preserve">
<rect fill="#333333" stroke="#000000" stroke-miterlimit="10" width="1180.082" height="44"/>
<g>
	<path fill="#FFFFFF" d="M28.963,28.023h-1.516l-6.242-9.586h-0.062c0.083,1.125,0.125,2.156,0.125,3.094v6.493h-1.227V16.601h1.5
		l6.227,9.547h0.062c-0.011-0.141-0.034-0.593-0.07-1.355c-0.037-0.764-0.05-1.309-0.039-1.637v-6.555h1.242V28.023z"/>
	<path fill="#FFFFFF" d="M35.526,28.18c-1.266,0-2.265-0.386-2.996-1.156c-0.732-0.771-1.098-1.842-1.098-3.211
		c0-1.38,0.34-2.477,1.02-3.29s1.592-1.219,2.738-1.219c1.073,0,1.922,0.353,2.547,1.059c0.625,0.706,0.938,1.637,0.938,2.793v0.82
		h-5.898c0.026,1.005,0.28,1.768,0.762,2.289c0.481,0.521,1.16,0.781,2.035,0.781c0.922,0,1.833-0.193,2.734-0.578v1.156
		c-0.458,0.197-0.892,0.34-1.301,0.426C36.597,28.137,36.104,28.18,35.526,28.18z M35.174,20.39c-0.688,0-1.236,0.224-1.645,0.672
		c-0.409,0.448-0.65,1.068-0.723,1.859h4.477c0-0.817-0.183-1.444-0.547-1.879C36.372,20.608,35.851,20.39,35.174,20.39z"/>
	<path fill="#FFFFFF" d="M47.877,28.023L46.307,23c-0.099-0.307-0.284-1.005-0.555-2.094H45.69c-0.208,0.912-0.391,1.615-0.547,2.11
		l-1.617,5.008h-1.5L39.69,19.46h1.359c0.552,2.151,0.973,3.79,1.262,4.915s0.454,1.883,0.496,2.273h0.062
		c0.057-0.297,0.149-0.682,0.277-1.152c0.127-0.472,0.238-0.846,0.332-1.121l1.57-4.915h1.406l1.531,4.915
		c0.292,0.896,0.489,1.648,0.594,2.258h0.062c0.021-0.188,0.077-0.477,0.168-0.867c0.091-0.391,0.634-2.492,1.629-6.305h1.344
		l-2.367,8.563H47.877z"/>
	<path fill="#FFFFFF" d="M58.854,25.688c0,0.797-0.297,1.411-0.891,1.844c-0.594,0.432-1.427,0.648-2.5,0.648
		c-1.136,0-2.021-0.18-2.656-0.539v-1.203c0.411,0.208,0.853,0.372,1.324,0.492c0.471,0.119,0.926,0.18,1.363,0.18
		c0.677,0,1.198-0.108,1.562-0.324c0.364-0.217,0.547-0.546,0.547-0.988c0-0.334-0.145-0.619-0.434-0.855
		c-0.289-0.237-0.853-0.518-1.691-0.84c-0.797-0.297-1.363-0.557-1.699-0.777c-0.336-0.222-0.586-0.473-0.75-0.754
		s-0.246-0.617-0.246-1.008c0-0.698,0.284-1.249,0.852-1.652c0.567-0.403,1.346-0.605,2.336-0.605c0.922,0,1.823,0.188,2.703,0.562
		l-0.461,1.055c-0.859-0.354-1.638-0.531-2.336-0.531c-0.615,0-1.078,0.097-1.391,0.289c-0.312,0.193-0.469,0.458-0.469,0.797
		c0,0.229,0.059,0.425,0.176,0.586c0.117,0.162,0.306,0.315,0.566,0.461c0.26,0.146,0.76,0.357,1.5,0.633
		c1.016,0.369,1.702,0.742,2.059,1.117C58.675,24.648,58.854,25.119,58.854,25.688z"/>
</g>
<g>
	<path fill="#FFFFFF" d="M83.278,23.273v4.75H81.95V16.601h3.133c1.401,0,2.436,0.269,3.105,0.805
		c0.669,0.537,1.004,1.344,1.004,2.422c0,1.511-0.766,2.531-2.297,3.062l3.102,5.133h-1.57l-2.766-4.75H83.278z M83.278,22.132h1.82
		c0.938,0,1.625-0.186,2.062-0.559c0.438-0.372,0.656-0.931,0.656-1.676c0-0.755-0.223-1.299-0.668-1.633
		c-0.445-0.333-1.16-0.5-2.145-0.5h-1.727V22.132z"/>
	<path fill="#FFFFFF" d="M95.262,28.18c-1.266,0-2.265-0.386-2.996-1.156c-0.732-0.771-1.098-1.842-1.098-3.211
		c0-1.38,0.34-2.477,1.02-3.29s1.592-1.219,2.738-1.219c1.073,0,1.922,0.353,2.547,1.059c0.625,0.706,0.938,1.637,0.938,2.793v0.82
		h-5.898c0.026,1.005,0.28,1.768,0.762,2.289c0.481,0.521,1.16,0.781,2.035,0.781c0.922,0,1.833-0.193,2.734-0.578v1.156
		c-0.458,0.197-0.892,0.34-1.301,0.426C96.333,28.137,95.84,28.18,95.262,28.18z M94.911,20.39c-0.688,0-1.236,0.224-1.645,0.672
		c-0.409,0.448-0.65,1.068-0.723,1.859h4.477c0-0.817-0.183-1.444-0.547-1.879C96.108,20.608,95.587,20.39,94.911,20.39z"/>
	<path fill="#FFFFFF" d="M102.497,28.023l-3.25-8.563h1.391l1.844,5.079c0.417,1.188,0.661,1.958,0.734,2.312h0.062
		c0.057-0.276,0.238-0.848,0.543-1.715s0.988-2.759,2.051-5.676h1.391l-3.25,8.563H102.497z"/>
	<path fill="#FFFFFF" d="M108.528,17.14c0-0.297,0.073-0.514,0.219-0.652c0.146-0.138,0.328-0.207,0.547-0.207
		c0.208,0,0.388,0.07,0.539,0.211c0.151,0.141,0.227,0.357,0.227,0.648c0,0.292-0.076,0.509-0.227,0.652
		c-0.151,0.144-0.331,0.215-0.539,0.215c-0.219,0-0.401-0.071-0.547-0.215C108.601,17.649,108.528,17.432,108.528,17.14z
		 M109.934,28.023h-1.297V19.46h1.297V28.023z"/>
	<path fill="#FFFFFF" d="M116.301,28.18c-1.266,0-2.265-0.386-2.996-1.156c-0.732-0.771-1.098-1.842-1.098-3.211
		c0-1.38,0.34-2.477,1.02-3.29s1.592-1.219,2.738-1.219c1.073,0,1.922,0.353,2.547,1.059c0.625,0.706,0.938,1.637,0.938,2.793v0.82
		h-5.898c0.026,1.005,0.28,1.768,0.762,2.289c0.481,0.521,1.16,0.781,2.035,0.781c0.922,0,1.833-0.193,2.734-0.578v1.156
		c-0.458,0.197-0.892,0.34-1.301,0.426C117.373,28.137,116.879,28.18,116.301,28.18z M115.95,20.39
		c-0.688,0-1.236,0.224-1.645,0.672c-0.409,0.448-0.65,1.068-0.723,1.859h4.477c0-0.817-0.183-1.444-0.547-1.879
		C117.147,20.608,116.626,20.39,115.95,20.39z"/>
	<path fill="#FFFFFF" d="M128.653,28.023L127.083,23c-0.099-0.307-0.284-1.005-0.555-2.094h-0.062
		c-0.208,0.912-0.391,1.615-0.547,2.11l-1.617,5.008h-1.5l-2.336-8.563h1.359c0.552,2.151,0.973,3.79,1.262,4.915
		s0.454,1.883,0.496,2.273h0.062c0.057-0.297,0.149-0.682,0.277-1.152c0.127-0.472,0.238-0.846,0.332-1.121l1.57-4.915h1.406
		l1.531,4.915c0.292,0.896,0.489,1.648,0.594,2.258h0.062c0.021-0.188,0.077-0.477,0.168-0.867c0.091-0.391,0.634-2.492,1.629-6.305
		h1.344l-2.367,8.563H128.653z"/>
	<path fill="#FFFFFF" d="M139.629,25.688c0,0.797-0.297,1.411-0.891,1.844c-0.594,0.432-1.427,0.648-2.5,0.648
		c-1.136,0-2.021-0.18-2.656-0.539v-1.203c0.411,0.208,0.853,0.372,1.324,0.492c0.471,0.119,0.926,0.18,1.363,0.18
		c0.677,0,1.198-0.108,1.562-0.324c0.364-0.217,0.547-0.546,0.547-0.988c0-0.334-0.145-0.619-0.434-0.855
		c-0.289-0.237-0.853-0.518-1.691-0.84c-0.797-0.297-1.363-0.557-1.699-0.777c-0.336-0.222-0.586-0.473-0.75-0.754
		s-0.246-0.617-0.246-1.008c0-0.698,0.284-1.249,0.852-1.652c0.567-0.403,1.346-0.605,2.336-0.605c0.922,0,1.823,0.188,2.703,0.562
		l-0.461,1.055c-0.859-0.354-1.638-0.531-2.336-0.531c-0.615,0-1.078,0.097-1.391,0.289c-0.312,0.193-0.469,0.458-0.469,0.797
		c0,0.229,0.059,0.425,0.176,0.586c0.117,0.162,0.306,0.315,0.566,0.461c0.26,0.146,0.76,0.357,1.5,0.633
		c1.016,0.369,1.702,0.742,2.059,1.117C139.451,24.648,139.629,25.119,139.629,25.688z"/>
</g>
<g>
	<path fill="#FFFFFF" d="M168.502,19.929c0,1.156-0.395,2.046-1.184,2.668c-0.789,0.623-1.918,0.934-3.387,0.934h-1.344v4.492
		h-1.328V16.601h2.961C167.075,16.601,168.502,17.71,168.502,19.929z M162.588,22.39h1.195c1.177,0,2.028-0.19,2.555-0.57
		c0.526-0.38,0.789-0.989,0.789-1.828c0-0.755-0.248-1.317-0.742-1.688c-0.495-0.37-1.266-0.555-2.312-0.555h-1.484V22.39z"/>
	<path fill="#FFFFFF" d="M171.994,28.023h-1.297V15.867h1.297V28.023z"/>
	<path fill="#FFFFFF" d="M180.01,28.023l-0.258-1.219h-0.062c-0.427,0.536-0.853,0.899-1.277,1.09
		c-0.425,0.189-0.955,0.285-1.59,0.285c-0.849,0-1.515-0.219-1.996-0.656c-0.482-0.438-0.723-1.061-0.723-1.867
		c0-1.729,1.383-2.636,4.148-2.719l1.453-0.047v-0.531c0-0.672-0.145-1.168-0.434-1.488s-0.751-0.48-1.387-0.48
		c-0.714,0-1.521,0.219-2.422,0.656l-0.398-0.992c0.422-0.229,0.884-0.409,1.387-0.539c0.502-0.13,1.006-0.195,1.512-0.195
		c1.021,0,1.777,0.227,2.27,0.68s0.738,1.18,0.738,2.18v5.844H180.01z M177.08,27.109c0.807,0,1.441-0.222,1.902-0.664
		c0.461-0.443,0.691-1.062,0.691-1.859v-0.773l-1.297,0.055c-1.031,0.036-1.775,0.196-2.23,0.48
		c-0.456,0.283-0.684,0.725-0.684,1.324c0,0.469,0.142,0.825,0.426,1.07C176.172,26.986,176.569,27.109,177.08,27.109z"/>
	<path fill="#FFFFFF" d="M182.283,19.46h1.391l1.875,4.883c0.411,1.114,0.667,1.919,0.766,2.414h0.062
		c0.067-0.266,0.209-0.721,0.426-1.363c0.216-0.644,0.923-2.622,2.121-5.934h1.391l-3.68,9.75c-0.365,0.963-0.791,1.646-1.277,2.051
		c-0.487,0.402-1.085,0.605-1.793,0.605c-0.396,0-0.787-0.045-1.172-0.133v-1.039c0.286,0.062,0.606,0.094,0.961,0.094
		c0.891,0,1.526-0.5,1.906-1.5l0.477-1.219L182.283,19.46z"/>
	<path fill="#FFFFFF" d="M197.229,25.688c0,0.797-0.297,1.411-0.891,1.844c-0.594,0.432-1.427,0.648-2.5,0.648
		c-1.136,0-2.021-0.18-2.656-0.539v-1.203c0.411,0.208,0.853,0.372,1.324,0.492c0.471,0.119,0.926,0.18,1.363,0.18
		c0.677,0,1.198-0.108,1.562-0.324c0.364-0.217,0.547-0.546,0.547-0.988c0-0.334-0.145-0.619-0.434-0.855
		c-0.289-0.237-0.853-0.518-1.691-0.84c-0.797-0.297-1.363-0.557-1.699-0.777c-0.336-0.222-0.586-0.473-0.75-0.754
		s-0.246-0.617-0.246-1.008c0-0.698,0.284-1.249,0.852-1.652c0.567-0.403,1.346-0.605,2.336-0.605c0.922,0,1.823,0.188,2.703,0.562
		l-0.461,1.055c-0.859-0.354-1.638-0.531-2.336-0.531c-0.615,0-1.078,0.097-1.391,0.289c-0.312,0.193-0.469,0.458-0.469,0.797
		c0,0.229,0.059,0.425,0.176,0.586c0.117,0.162,0.306,0.315,0.566,0.461c0.26,0.146,0.76,0.357,1.5,0.633
		c1.016,0.369,1.702,0.742,2.059,1.117C197.05,24.648,197.229,25.119,197.229,25.688z"/>
	<path fill="#FFFFFF" d="M202.104,27.109c0.229,0,0.45-0.018,0.664-0.051c0.213-0.034,0.383-0.069,0.508-0.105v0.992
		c-0.141,0.067-0.348,0.123-0.621,0.168c-0.273,0.043-0.52,0.066-0.738,0.066c-1.656,0-2.484-0.873-2.484-2.617v-5.094h-1.227
		v-0.625l1.227-0.539l0.547-1.828h0.75v1.984h2.484v1.008h-2.484v5.04c0,0.516,0.122,0.911,0.367,1.188
		C201.34,26.971,201.676,27.109,202.104,27.109z"/>
	<path fill="#FFFFFF" d="M210.252,28.023l-0.258-1.219h-0.062c-0.427,0.536-0.853,0.899-1.277,1.09
		c-0.425,0.189-0.955,0.285-1.59,0.285c-0.849,0-1.515-0.219-1.996-0.656c-0.482-0.438-0.723-1.061-0.723-1.867
		c0-1.729,1.383-2.636,4.148-2.719l1.453-0.047v-0.531c0-0.672-0.145-1.168-0.434-1.488s-0.751-0.48-1.387-0.48
		c-0.714,0-1.521,0.219-2.422,0.656l-0.398-0.992c0.422-0.229,0.884-0.409,1.387-0.539c0.502-0.13,1.006-0.195,1.512-0.195
		c1.021,0,1.777,0.227,2.27,0.68s0.738,1.18,0.738,2.18v5.844H210.252z M207.322,27.109c0.807,0,1.441-0.222,1.902-0.664
		c0.461-0.443,0.691-1.062,0.691-1.859v-0.773l-1.297,0.055c-1.031,0.036-1.775,0.196-2.23,0.48
		c-0.456,0.283-0.684,0.725-0.684,1.324c0,0.469,0.142,0.825,0.426,1.07C206.415,26.986,206.812,27.109,207.322,27.109z"/>
	<path fill="#FFFFFF" d="M216.65,27.109c0.229,0,0.45-0.018,0.664-0.051c0.213-0.034,0.383-0.069,0.508-0.105v0.992
		c-0.141,0.067-0.348,0.123-0.621,0.168c-0.273,0.043-0.52,0.066-0.738,0.066c-1.656,0-2.484-0.873-2.484-2.617v-5.094h-1.227
		v-0.625l1.227-0.539l0.547-1.828h0.75v1.984h2.484v1.008h-2.484v5.04c0,0.516,0.122,0.911,0.367,1.188
		C215.887,26.971,216.223,27.109,216.65,27.109z"/>
	<path fill="#FFFFFF" d="M219.424,17.14c0-0.297,0.073-0.514,0.219-0.652c0.146-0.138,0.328-0.207,0.547-0.207
		c0.208,0,0.388,0.07,0.539,0.211c0.151,0.141,0.227,0.357,0.227,0.648c0,0.292-0.076,0.509-0.227,0.652
		c-0.151,0.144-0.331,0.215-0.539,0.215c-0.219,0-0.401-0.071-0.547-0.215C219.497,17.649,219.424,17.432,219.424,17.14z
		 M220.83,28.023h-1.297V19.46h1.297V28.023z"/>
	<path fill="#FFFFFF" d="M230.971,23.734c0,1.396-0.352,2.485-1.055,3.27c-0.703,0.783-1.675,1.176-2.914,1.176
		c-0.766,0-1.445-0.18-2.039-0.539s-1.052-0.875-1.375-1.547c-0.323-0.672-0.484-1.459-0.484-2.359c0-1.396,0.349-2.483,1.047-3.262
		c0.698-0.778,1.667-1.168,2.906-1.168c1.198,0,2.149,0.398,2.855,1.195C230.618,21.296,230.971,22.375,230.971,23.734z
		 M224.447,23.734c0,1.094,0.219,1.927,0.656,2.5c0.438,0.572,1.081,0.859,1.93,0.859c0.849,0,1.493-0.285,1.934-0.855
		c0.44-0.57,0.66-1.405,0.66-2.504c0-1.089-0.22-1.916-0.66-2.481c-0.44-0.565-1.09-0.848-1.949-0.848
		c-0.849,0-1.49,0.279-1.922,0.836C224.663,21.799,224.447,22.63,224.447,23.734z"/>
	<path fill="#FFFFFF" d="M239.104,28.023v-5.54c0-0.698-0.159-1.219-0.477-1.562c-0.318-0.344-0.815-0.516-1.492-0.516
		c-0.896,0-1.552,0.242-1.969,0.727c-0.417,0.484-0.625,1.284-0.625,2.399v4.492h-1.297V19.46h1.055l0.211,1.172h0.062
		c0.266-0.422,0.638-0.749,1.117-0.98c0.479-0.231,1.013-0.348,1.602-0.348c1.031,0,1.807,0.249,2.328,0.746
		c0.521,0.498,0.781,1.293,0.781,2.387v5.586H239.104z"/>
</g>
<g>
	<path fill="#FFFFFF" d="M271.068,28.023h-1.508L266.49,23l-3.125,5.024h-1.406l3.797-5.969l-3.539-5.453h1.469l2.836,4.523
		l2.859-4.523h1.414l-3.539,5.406L271.068,28.023z"/>
	<path fill="#FFFFFF" d="M276.49,19.32c1.125,0,1.999,0.384,2.621,1.152c0.622,0.769,0.934,1.855,0.934,3.262
		c0,1.406-0.314,2.498-0.941,3.277c-0.628,0.778-1.499,1.168-2.613,1.168c-0.558,0-1.066-0.104-1.527-0.309
		c-0.461-0.206-0.848-0.522-1.16-0.949h-0.094l-0.273,1.102h-0.93V15.867h1.297v2.953c0,0.662-0.021,1.255-0.062,1.781h0.062
		C274.406,19.747,275.302,19.32,276.49,19.32z M276.302,20.406c-0.886,0-1.523,0.254-1.914,0.762s-0.586,1.363-0.586,2.567
		c0,1.203,0.2,2.063,0.602,2.582c0.401,0.518,1.044,0.777,1.93,0.777c0.797,0,1.391-0.291,1.781-0.871
		c0.391-0.581,0.586-1.416,0.586-2.504c0-1.115-0.195-1.946-0.586-2.493S277.12,20.406,276.302,20.406z"/>
	<path fill="#FFFFFF" d="M289.701,23.734c0,1.396-0.352,2.485-1.055,3.27c-0.703,0.783-1.675,1.176-2.914,1.176
		c-0.766,0-1.445-0.18-2.039-0.539s-1.052-0.875-1.375-1.547c-0.323-0.672-0.484-1.459-0.484-2.359c0-1.396,0.349-2.483,1.047-3.262
		c0.698-0.778,1.667-1.168,2.906-1.168c1.198,0,2.149,0.398,2.855,1.195C289.348,21.296,289.701,22.375,289.701,23.734z
		 M283.177,23.734c0,1.094,0.219,1.927,0.656,2.5c0.438,0.572,1.081,0.859,1.93,0.859c0.849,0,1.493-0.285,1.934-0.855
		c0.44-0.57,0.66-1.405,0.66-2.504c0-1.089-0.22-1.916-0.66-2.481c-0.44-0.565-1.09-0.848-1.949-0.848
		c-0.849,0-1.49,0.279-1.922,0.836C283.393,21.799,283.177,22.63,283.177,23.734z"/>
	<path fill="#FFFFFF" d="M294.037,23.641l-2.977-4.18h1.477l2.258,3.281l2.25-3.281h1.461l-2.977,4.18l3.133,4.383h-1.469
		l-2.398-3.469l-2.422,3.469h-1.469L294.037,23.641z"/>
</g>
<g>
	<path fill="#FFFFFF" d="M327.561,28.023h-1.516l-6.242-9.586h-0.062c0.083,1.125,0.125,2.156,0.125,3.094v6.493h-1.227V16.601h1.5
		l6.227,9.547h0.062c-0.011-0.141-0.034-0.593-0.07-1.355c-0.037-0.764-0.05-1.309-0.039-1.637v-6.555h1.242V28.023z"/>
	<path fill="#FFFFFF" d="M330.396,17.14c0-0.297,0.073-0.514,0.219-0.652c0.146-0.138,0.328-0.207,0.547-0.207
		c0.208,0,0.388,0.07,0.539,0.211c0.151,0.141,0.227,0.357,0.227,0.648c0,0.292-0.076,0.509-0.227,0.652
		c-0.151,0.144-0.331,0.215-0.539,0.215c-0.219,0-0.401-0.071-0.547-0.215C330.469,17.649,330.396,17.432,330.396,17.14z
		 M331.803,28.023h-1.297V19.46h1.297V28.023z"/>
	<path fill="#FFFFFF" d="M340.412,28.023v-5.54c0-0.698-0.159-1.219-0.477-1.562c-0.318-0.344-0.815-0.516-1.492-0.516
		c-0.896,0-1.552,0.242-1.969,0.727c-0.417,0.484-0.625,1.284-0.625,2.399v4.492h-1.297V19.46h1.055l0.211,1.172h0.062
		c0.266-0.422,0.638-0.749,1.117-0.98c0.479-0.231,1.013-0.348,1.602-0.348c1.031,0,1.807,0.249,2.328,0.746
		c0.521,0.498,0.781,1.293,0.781,2.387v5.586H340.412z"/>
	<path fill="#FFFFFF" d="M347.139,27.109c0.229,0,0.45-0.018,0.664-0.051c0.213-0.034,0.383-0.069,0.508-0.105v0.992
		c-0.141,0.067-0.348,0.123-0.621,0.168c-0.273,0.043-0.52,0.066-0.738,0.066c-1.656,0-2.484-0.873-2.484-2.617v-5.094h-1.227
		v-0.625l1.227-0.539l0.547-1.828h0.75v1.984h2.484v1.008h-2.484v5.04c0,0.516,0.122,0.911,0.367,1.188
		C346.375,26.971,346.711,27.109,347.139,27.109z"/>
	<path fill="#FFFFFF" d="M353.639,28.18c-1.266,0-2.265-0.386-2.996-1.156c-0.732-0.771-1.098-1.842-1.098-3.211
		c0-1.38,0.34-2.477,1.02-3.29s1.592-1.219,2.738-1.219c1.073,0,1.922,0.353,2.547,1.059c0.625,0.706,0.938,1.637,0.938,2.793v0.82
		h-5.898c0.026,1.005,0.28,1.768,0.762,2.289c0.481,0.521,1.16,0.781,2.035,0.781c0.922,0,1.833-0.193,2.734-0.578v1.156
		c-0.458,0.197-0.892,0.34-1.301,0.426C354.71,28.137,354.217,28.18,353.639,28.18z M353.287,20.39
		c-0.688,0-1.236,0.224-1.645,0.672c-0.409,0.448-0.65,1.068-0.723,1.859h4.477c0-0.817-0.183-1.444-0.547-1.879
		C354.485,20.608,353.964,20.39,353.287,20.39z"/>
	<path fill="#FFFFFF" d="M364.857,28.023v-5.54c0-0.698-0.159-1.219-0.477-1.562c-0.318-0.344-0.815-0.516-1.492-0.516
		c-0.896,0-1.552,0.242-1.969,0.727c-0.417,0.484-0.625,1.284-0.625,2.399v4.492h-1.297V19.46h1.055l0.211,1.172h0.062
		c0.266-0.422,0.638-0.749,1.117-0.98c0.479-0.231,1.013-0.348,1.602-0.348c1.031,0,1.807,0.249,2.328,0.746
		c0.521,0.498,0.781,1.293,0.781,2.387v5.586H364.857z"/>
	<path fill="#FFFFFF" d="M374.646,26.875h-0.07c-0.599,0.869-1.495,1.305-2.688,1.305c-1.12,0-1.991-0.383-2.613-1.148
		c-0.623-0.766-0.934-1.854-0.934-3.266c0-1.412,0.312-2.508,0.938-3.29s1.495-1.172,2.609-1.172c1.161,0,2.052,0.422,2.672,1.266
		h0.102l-0.055-0.617l-0.031-0.602v-3.484h1.297v12.157h-1.055L374.646,26.875z M372.053,27.094c0.885,0,1.527-0.241,1.926-0.723
		c0.398-0.482,0.598-1.26,0.598-2.332v-0.273c0-1.214-0.202-2.08-0.605-2.598c-0.404-0.518-1.048-0.777-1.934-0.777
		c-0.761,0-1.343,0.296-1.746,0.887c-0.404,0.591-0.605,1.426-0.605,2.504c0,1.094,0.2,1.919,0.602,2.477
		C370.688,26.814,371.276,27.094,372.053,27.094z"/>
	<path fill="#FFFFFF" d="M386.014,23.734c0,1.396-0.352,2.485-1.055,3.27c-0.703,0.783-1.675,1.176-2.914,1.176
		c-0.766,0-1.445-0.18-2.039-0.539s-1.052-0.875-1.375-1.547c-0.323-0.672-0.484-1.459-0.484-2.359c0-1.396,0.349-2.483,1.047-3.262
		c0.698-0.778,1.667-1.168,2.906-1.168c1.198,0,2.149,0.398,2.855,1.195C385.661,21.296,386.014,22.375,386.014,23.734z
		 M379.49,23.734c0,1.094,0.219,1.927,0.656,2.5c0.438,0.572,1.081,0.859,1.93,0.859c0.849,0,1.493-0.285,1.934-0.855
		c0.44-0.57,0.66-1.405,0.66-2.504c0-1.089-0.22-1.916-0.66-2.481c-0.44-0.565-1.09-0.848-1.949-0.848
		c-0.849,0-1.49,0.279-1.922,0.836C379.706,21.799,379.49,22.63,379.49,23.734z"/>
</g>
<g>
	<path fill="#FFFFFF" d="M411.9,28.023l-3.875-10.125h-0.062c0.073,0.802,0.109,1.755,0.109,2.859v7.266h-1.227V16.601h2
		l3.617,9.422h0.062l3.648-9.422h1.984v11.422h-1.328v-7.36c0-0.844,0.036-1.76,0.109-2.75h-0.062l-3.906,10.11H411.9z"/>
	<path fill="#FFFFFF" d="M428.486,23.734c0,1.396-0.352,2.485-1.055,3.27c-0.703,0.783-1.675,1.176-2.914,1.176
		c-0.766,0-1.445-0.18-2.039-0.539s-1.052-0.875-1.375-1.547c-0.323-0.672-0.484-1.459-0.484-2.359c0-1.396,0.349-2.483,1.047-3.262
		c0.698-0.778,1.667-1.168,2.906-1.168c1.198,0,2.149,0.398,2.855,1.195C428.133,21.296,428.486,22.375,428.486,23.734z
		 M421.963,23.734c0,1.094,0.219,1.927,0.656,2.5c0.438,0.572,1.081,0.859,1.93,0.859c0.849,0,1.493-0.285,1.934-0.855
		c0.44-0.57,0.66-1.405,0.66-2.504c0-1.089-0.22-1.916-0.66-2.481c-0.44-0.565-1.09-0.848-1.949-0.848
		c-0.849,0-1.49,0.279-1.922,0.836C422.179,21.799,421.963,22.63,421.963,23.734z"/>
	<path fill="#FFFFFF" d="M432.635,28.023l-3.25-8.563h1.391l1.844,5.079c0.417,1.188,0.661,1.958,0.734,2.312h0.062
		c0.057-0.276,0.238-0.848,0.543-1.715s0.988-2.759,2.051-5.676h1.391l-3.25,8.563H432.635z"/>
	<path fill="#FFFFFF" d="M438.666,17.14c0-0.297,0.073-0.514,0.219-0.652c0.146-0.138,0.328-0.207,0.547-0.207
		c0.208,0,0.388,0.07,0.539,0.211c0.151,0.141,0.227,0.357,0.227,0.648c0,0.292-0.076,0.509-0.227,0.652
		c-0.151,0.144-0.331,0.215-0.539,0.215c-0.219,0-0.401-0.071-0.547-0.215C438.739,17.649,438.666,17.432,438.666,17.14z
		 M440.072,28.023h-1.297V19.46h1.297V28.023z"/>
	<path fill="#FFFFFF" d="M446.439,28.18c-1.266,0-2.265-0.386-2.996-1.156c-0.732-0.771-1.098-1.842-1.098-3.211
		c0-1.38,0.34-2.477,1.02-3.29s1.592-1.219,2.738-1.219c1.073,0,1.922,0.353,2.547,1.059c0.625,0.706,0.938,1.637,0.938,2.793v0.82
		h-5.898c0.026,1.005,0.28,1.768,0.762,2.289c0.481,0.521,1.16,0.781,2.035,0.781c0.922,0,1.833-0.193,2.734-0.578v1.156
		c-0.458,0.197-0.892,0.34-1.301,0.426C447.511,28.137,447.018,28.18,446.439,28.18z M446.088,20.39
		c-0.688,0-1.236,0.224-1.645,0.672c-0.409,0.448-0.65,1.068-0.723,1.859h4.477c0-0.817-0.183-1.444-0.547-1.879
		C447.286,20.608,446.765,20.39,446.088,20.39z"/>
	<path fill="#FFFFFF" d="M457.322,25.688c0,0.797-0.297,1.411-0.891,1.844c-0.594,0.432-1.427,0.648-2.5,0.648
		c-1.136,0-2.021-0.18-2.656-0.539v-1.203c0.411,0.208,0.853,0.372,1.324,0.492c0.471,0.119,0.926,0.18,1.363,0.18
		c0.677,0,1.198-0.108,1.562-0.324c0.364-0.217,0.547-0.546,0.547-0.988c0-0.334-0.145-0.619-0.434-0.855
		c-0.289-0.237-0.853-0.518-1.691-0.84c-0.797-0.297-1.363-0.557-1.699-0.777c-0.336-0.222-0.586-0.473-0.75-0.754
		s-0.246-0.617-0.246-1.008c0-0.698,0.284-1.249,0.852-1.652c0.567-0.403,1.346-0.605,2.336-0.605c0.922,0,1.823,0.188,2.703,0.562
		l-0.461,1.055c-0.859-0.354-1.638-0.531-2.336-0.531c-0.615,0-1.078,0.097-1.391,0.289c-0.312,0.193-0.469,0.458-0.469,0.797
		c0,0.229,0.059,0.425,0.176,0.586c0.117,0.162,0.306,0.315,0.566,0.461c0.26,0.146,0.76,0.357,1.5,0.633
		c1.016,0.369,1.702,0.742,2.059,1.117C457.144,24.648,457.322,25.119,457.322,25.688z"/>
</g>
<g>
	<path fill="#FFFFFF" d="M479.177,28.023h-1.328V17.781h-3.617v-1.18h8.562v1.18h-3.617V28.023z"/>
	<path fill="#FFFFFF" d="M491.037,16.601h1.43l-4.117,11.422h-1.312l-4.094-11.422h1.406l2.625,7.391
		c0.302,0.849,0.542,1.674,0.719,2.477c0.188-0.844,0.432-1.686,0.734-2.523L491.037,16.601z"/>
</g>
<g>
	<path fill="#FFFFFF" d="M518.07,17.625c-1.255,0-2.246,0.418-2.973,1.254s-1.09,1.98-1.09,3.434c0,1.495,0.35,2.65,1.051,3.465
		c0.7,0.814,1.699,1.223,2.996,1.223c0.797,0,1.706-0.144,2.727-0.43v1.164c-0.792,0.297-1.769,0.445-2.93,0.445
		c-1.683,0-2.98-0.511-3.895-1.531c-0.914-1.021-1.371-2.472-1.371-4.352c0-1.177,0.22-2.208,0.66-3.094
		c0.44-0.885,1.075-1.567,1.906-2.047c0.831-0.479,1.809-0.719,2.934-0.719c1.198,0,2.245,0.219,3.141,0.656l-0.562,1.141
		C519.799,17.828,518.935,17.625,518.07,17.625z"/>
	<path fill="#FFFFFF" d="M530.469,23.734c0,1.396-0.352,2.485-1.055,3.27c-0.703,0.783-1.675,1.176-2.914,1.176
		c-0.766,0-1.445-0.18-2.039-0.539s-1.052-0.875-1.375-1.547c-0.323-0.672-0.484-1.459-0.484-2.359c0-1.396,0.349-2.483,1.047-3.262
		c0.698-0.778,1.667-1.168,2.906-1.168c1.198,0,2.149,0.398,2.855,1.195C530.116,21.296,530.469,22.375,530.469,23.734z
		 M523.945,23.734c0,1.094,0.219,1.927,0.656,2.5c0.438,0.572,1.081,0.859,1.93,0.859c0.849,0,1.493-0.285,1.934-0.855
		c0.44-0.57,0.66-1.405,0.66-2.504c0-1.089-0.22-1.916-0.66-2.481c-0.44-0.565-1.09-0.848-1.949-0.848
		c-0.849,0-1.49,0.279-1.922,0.836C524.161,21.799,523.945,22.63,523.945,23.734z"/>
	<path fill="#FFFFFF" d="M540.133,23.734c0,1.396-0.352,2.485-1.055,3.27c-0.703,0.783-1.675,1.176-2.914,1.176
		c-0.766,0-1.445-0.18-2.039-0.539s-1.052-0.875-1.375-1.547c-0.323-0.672-0.484-1.459-0.484-2.359c0-1.396,0.349-2.483,1.047-3.262
		c0.698-0.778,1.667-1.168,2.906-1.168c1.198,0,2.149,0.398,2.855,1.195C539.78,21.296,540.133,22.375,540.133,23.734z
		 M533.609,23.734c0,1.094,0.219,1.927,0.656,2.5c0.438,0.572,1.081,0.859,1.93,0.859c0.849,0,1.493-0.285,1.934-0.855
		c0.44-0.57,0.66-1.405,0.66-2.504c0-1.089-0.22-1.916-0.66-2.481c-0.44-0.565-1.09-0.848-1.949-0.848
		c-0.849,0-1.49,0.279-1.922,0.836C533.825,21.799,533.609,22.63,533.609,23.734z"/>
	<path fill="#FFFFFF" d="M543.703,28.023h-1.297V15.867h1.297V28.023z"/>
	<path fill="#FFFFFF" d="M557.25,24.984c0,1.005-0.365,1.789-1.094,2.352c-0.729,0.562-1.719,0.844-2.969,0.844
		c-1.354,0-2.396-0.175-3.125-0.523v-1.281c0.469,0.197,0.979,0.354,1.531,0.469c0.552,0.114,1.099,0.172,1.641,0.172
		c0.885,0,1.552-0.168,2-0.504c0.448-0.336,0.672-0.804,0.672-1.402c0-0.396-0.08-0.721-0.238-0.973
		c-0.159-0.253-0.425-0.486-0.797-0.699c-0.373-0.214-0.939-0.456-1.699-0.727c-1.062-0.38-1.822-0.831-2.277-1.352
		c-0.456-0.521-0.684-1.2-0.684-2.039c0-0.88,0.331-1.581,0.992-2.102c0.661-0.521,1.536-0.781,2.625-0.781
		c1.135,0,2.18,0.208,3.133,0.625l-0.414,1.156c-0.943-0.396-1.859-0.594-2.75-0.594c-0.703,0-1.253,0.151-1.648,0.453
		c-0.396,0.302-0.594,0.722-0.594,1.258c0,0.396,0.073,0.72,0.219,0.973c0.146,0.253,0.392,0.484,0.738,0.695
		c0.346,0.211,0.876,0.444,1.59,0.699c1.198,0.427,2.022,0.886,2.473,1.375C557.024,23.567,557.25,24.203,557.25,24.984z"/>
	<path fill="#FFFFFF" d="M562.156,27.109c0.229,0,0.45-0.018,0.664-0.051c0.213-0.034,0.383-0.069,0.508-0.105v0.992
		c-0.141,0.067-0.348,0.123-0.621,0.168c-0.273,0.043-0.52,0.066-0.738,0.066c-1.656,0-2.484-0.873-2.484-2.617v-5.094h-1.227
		v-0.625l1.227-0.539l0.547-1.828h0.75v1.984h2.484v1.008h-2.484v5.04c0,0.516,0.122,0.911,0.367,1.188
		C561.393,26.971,561.729,27.109,562.156,27.109z"/>
	<path fill="#FFFFFF" d="M566.258,19.46v5.555c0,0.697,0.159,1.219,0.477,1.562c0.317,0.344,0.815,0.516,1.492,0.516
		c0.896,0,1.551-0.245,1.965-0.734c0.414-0.49,0.621-1.289,0.621-2.398v-4.5h1.297v8.563h-1.07l-0.188-1.148h-0.07
		c-0.266,0.422-0.634,0.744-1.105,0.969c-0.472,0.223-1.009,0.336-1.613,0.336c-1.042,0-1.822-0.248-2.34-0.742
		c-0.519-0.495-0.777-1.287-0.777-2.375V19.46H566.258z"/>
	<path fill="#FFFFFF" d="M578.719,20.468h-2.18v7.555h-1.297v-7.555h-1.531v-0.586l1.531-0.469v-0.477
		c0-2.104,0.919-3.156,2.758-3.156c0.453,0,0.984,0.091,1.594,0.273l-0.336,1.039c-0.5-0.161-0.927-0.242-1.281-0.242
		c-0.49,0-0.852,0.163-1.086,0.488c-0.234,0.326-0.352,0.848-0.352,1.566v0.555h2.18V20.468z M584.141,20.468h-2.18v7.555h-1.297
		v-7.555h-1.531v-0.586l1.531-0.469v-0.477c0-2.104,0.919-3.156,2.758-3.156c0.453,0,0.984,0.091,1.594,0.273l-0.336,1.039
		c-0.5-0.161-0.927-0.242-1.281-0.242c-0.49,0-0.852,0.163-1.086,0.488c-0.234,0.326-0.352,0.848-0.352,1.566v0.555h2.18V20.468z"/>
</g>
<g>
	<path fill="#FFFFFF" d="M610.347,22.296c0,1.829-0.462,3.266-1.387,4.313c-0.925,1.047-2.21,1.57-3.855,1.57
		c-1.683,0-2.98-0.515-3.895-1.543c-0.914-1.029-1.371-2.48-1.371-4.356c0-1.859,0.458-3.301,1.375-4.324
		c0.917-1.023,2.219-1.535,3.906-1.535c1.641,0,2.922,0.521,3.844,1.562C609.886,19.026,610.347,20.463,610.347,22.296z
		 M601.245,22.296c0,1.547,0.329,2.72,0.988,3.52c0.659,0.799,1.616,1.199,2.871,1.199c1.266,0,2.221-0.398,2.867-1.195
		c0.646-0.797,0.969-1.972,0.969-3.524c0-1.536-0.322-2.702-0.965-3.496c-0.644-0.794-1.595-1.191-2.855-1.191
		c-1.266,0-2.228,0.4-2.887,1.199C601.574,19.608,601.245,20.771,601.245,22.296z"/>
	<path fill="#FFFFFF" d="M616.558,20.468h-2.18v7.555h-1.297v-7.555h-1.531v-0.586l1.531-0.469v-0.477
		c0-2.104,0.919-3.156,2.758-3.156c0.453,0,0.984,0.091,1.594,0.273l-0.336,1.039c-0.5-0.161-0.927-0.242-1.281-0.242
		c-0.49,0-0.852,0.163-1.086,0.488c-0.234,0.326-0.352,0.848-0.352,1.566v0.555h2.18V20.468z M621.933,20.468h-2.18v7.555h-1.297
		v-7.555h-1.531v-0.586l1.531-0.469v-0.477c0-2.104,0.919-3.156,2.758-3.156c0.453,0,0.984,0.091,1.594,0.273l-0.336,1.039
		c-0.5-0.161-0.927-0.242-1.281-0.242c-0.49,0-0.852,0.163-1.086,0.488c-0.234,0.326-0.352,0.848-0.352,1.566v0.555h2.18V20.468z
		 M623.44,17.14c0-0.297,0.073-0.514,0.219-0.652c0.146-0.138,0.328-0.207,0.547-0.207c0.208,0,0.388,0.07,0.539,0.211
		s0.227,0.357,0.227,0.648c0,0.292-0.075,0.509-0.227,0.652c-0.151,0.144-0.331,0.215-0.539,0.215c-0.219,0-0.401-0.071-0.547-0.215
		C623.513,17.649,623.44,17.432,623.44,17.14z M624.847,28.023h-1.297V19.46h1.297V28.023z"/>
	<path fill="#FFFFFF" d="M631.034,28.18c-1.239,0-2.199-0.382-2.879-1.145c-0.68-0.764-1.02-1.843-1.02-3.238
		c0-1.433,0.345-2.54,1.035-3.321s1.673-1.172,2.949-1.172c0.411,0,0.823,0.044,1.234,0.133c0.411,0.089,0.734,0.193,0.969,0.312
		l-0.398,1.102c-0.286-0.114-0.599-0.209-0.938-0.285c-0.339-0.075-0.638-0.113-0.898-0.113c-1.739,0-2.609,1.109-2.609,3.329
		c0,1.052,0.212,1.859,0.637,2.422s1.054,0.844,1.887,0.844c0.714,0,1.445-0.154,2.195-0.461v1.148
		C632.625,28.031,631.904,28.18,631.034,28.18z"/>
	<path fill="#FFFFFF" d="M635.12,17.14c0-0.297,0.073-0.514,0.219-0.652c0.146-0.138,0.328-0.207,0.547-0.207
		c0.208,0,0.388,0.07,0.539,0.211s0.227,0.357,0.227,0.648c0,0.292-0.075,0.509-0.227,0.652c-0.151,0.144-0.331,0.215-0.539,0.215
		c-0.219,0-0.401-0.071-0.547-0.215C635.193,17.649,635.12,17.432,635.12,17.14z M636.526,28.023h-1.297V19.46h1.297V28.023z"/>
	<path fill="#FFFFFF" d="M644.542,28.023l-0.258-1.219h-0.062c-0.427,0.536-0.853,0.899-1.277,1.09
		c-0.425,0.189-0.954,0.285-1.59,0.285c-0.849,0-1.515-0.219-1.996-0.656s-0.723-1.061-0.723-1.867c0-1.729,1.383-2.636,4.148-2.719
		l1.453-0.047v-0.531c0-0.672-0.145-1.168-0.434-1.488s-0.751-0.48-1.387-0.48c-0.714,0-1.521,0.219-2.422,0.656l-0.398-0.992
		c0.422-0.229,0.884-0.409,1.387-0.539c0.503-0.13,1.007-0.195,1.512-0.195c1.021,0,1.777,0.227,2.27,0.68s0.738,1.18,0.738,2.18
		v5.844H644.542z M641.612,27.109c0.808,0,1.441-0.222,1.902-0.664c0.461-0.443,0.691-1.062,0.691-1.859v-0.773l-1.297,0.055
		c-1.031,0.036-1.774,0.196-2.23,0.48c-0.456,0.283-0.684,0.725-0.684,1.324c0,0.469,0.142,0.825,0.426,1.07
		C640.705,26.986,641.102,27.109,641.612,27.109z"/>
	<path fill="#FFFFFF" d="M649.472,28.023h-1.297V15.867h1.297V28.023z"/>
	<path fill="#FFFFFF" d="M664.175,28.023h-1.508L659.597,23l-3.125,5.024h-1.406l3.797-5.969l-3.539-5.453h1.469l2.836,4.523
		l2.859-4.523h1.414l-3.539,5.406L664.175,28.023z"/>
	<path fill="#FFFFFF" d="M669.597,19.32c1.125,0,1.999,0.384,2.621,1.152c0.622,0.769,0.934,1.855,0.934,3.262
		c0,1.406-0.313,2.498-0.941,3.277c-0.628,0.778-1.499,1.168-2.613,1.168c-0.558,0-1.066-0.104-1.527-0.309
		c-0.461-0.206-0.848-0.522-1.16-0.949h-0.094l-0.273,1.102h-0.93V15.867h1.297v2.953c0,0.662-0.021,1.255-0.062,1.781h0.062
		C667.514,19.747,668.409,19.32,669.597,19.32z M669.409,20.406c-0.886,0-1.523,0.254-1.914,0.762s-0.586,1.363-0.586,2.567
		c0,1.203,0.2,2.063,0.602,2.582c0.401,0.518,1.044,0.777,1.93,0.777c0.797,0,1.391-0.291,1.781-0.871
		c0.391-0.581,0.586-1.416,0.586-2.504c0-1.115-0.195-1.946-0.586-2.493S670.227,20.406,669.409,20.406z"/>
	<path fill="#FFFFFF" d="M682.808,23.734c0,1.396-0.352,2.485-1.055,3.27c-0.703,0.783-1.675,1.176-2.914,1.176
		c-0.766,0-1.445-0.18-2.039-0.539s-1.052-0.875-1.375-1.547s-0.484-1.459-0.484-2.359c0-1.396,0.349-2.483,1.047-3.262
		c0.698-0.778,1.667-1.168,2.906-1.168c1.198,0,2.149,0.398,2.855,1.195S682.808,22.375,682.808,23.734z M676.284,23.734
		c0,1.094,0.219,1.927,0.656,2.5c0.438,0.572,1.081,0.859,1.93,0.859s1.493-0.285,1.934-0.855s0.66-1.405,0.66-2.504
		c0-1.089-0.22-1.916-0.66-2.481c-0.44-0.565-1.09-0.848-1.949-0.848c-0.849,0-1.489,0.279-1.922,0.836
		C676.5,21.799,676.284,22.63,676.284,23.734z"/>
	<path fill="#FFFFFF" d="M687.144,23.641l-2.977-4.18h1.477l2.258,3.281l2.25-3.281h1.461l-2.977,4.18l3.133,4.383H690.3
		l-2.398-3.469l-2.422,3.469h-1.469L687.144,23.641z"/>
</g>
<g>
	<path fill="#FFFFFF" d="M720.347,22.296c0,1.829-0.462,3.266-1.387,4.313s-2.21,1.57-3.855,1.57c-1.683,0-2.98-0.515-3.895-1.543
		c-0.914-1.029-1.371-2.48-1.371-4.356c0-1.859,0.458-3.301,1.375-4.324s2.219-1.535,3.906-1.535c1.641,0,2.922,0.521,3.844,1.562
		C719.886,19.026,720.347,20.463,720.347,22.296z M711.245,22.296c0,1.547,0.329,2.72,0.988,3.52
		c0.659,0.799,1.616,1.199,2.871,1.199c1.266,0,2.222-0.398,2.867-1.195s0.969-1.972,0.969-3.524c0-1.536-0.321-2.702-0.965-3.496
		c-0.644-0.794-1.595-1.191-2.855-1.191c-1.266,0-2.228,0.4-2.887,1.199C711.574,19.608,711.245,20.771,711.245,22.296z"/>
	<path fill="#FFFFFF" d="M726.558,20.468h-2.18v7.555h-1.297v-7.555h-1.531v-0.586l1.531-0.469v-0.477
		c0-2.104,0.919-3.156,2.758-3.156c0.453,0,0.984,0.091,1.594,0.273l-0.336,1.039c-0.5-0.161-0.927-0.242-1.281-0.242
		c-0.489,0-0.852,0.163-1.086,0.488c-0.234,0.326-0.352,0.848-0.352,1.566v0.555h2.18V20.468z M731.933,20.468h-2.18v7.555h-1.297
		v-7.555h-1.531v-0.586l1.531-0.469v-0.477c0-2.104,0.919-3.156,2.758-3.156c0.453,0,0.984,0.091,1.594,0.273l-0.336,1.039
		c-0.5-0.161-0.927-0.242-1.281-0.242c-0.489,0-0.852,0.163-1.086,0.488c-0.234,0.326-0.352,0.848-0.352,1.566v0.555h2.18V20.468z
		 M733.44,17.14c0-0.297,0.073-0.514,0.219-0.652c0.146-0.138,0.328-0.207,0.547-0.207c0.208,0,0.388,0.07,0.539,0.211
		s0.227,0.357,0.227,0.648c0,0.292-0.075,0.509-0.227,0.652c-0.151,0.144-0.331,0.215-0.539,0.215c-0.219,0-0.401-0.071-0.547-0.215
		C733.514,17.649,733.44,17.432,733.44,17.14z M734.847,28.023h-1.297V19.46h1.297V28.023z"/>
	<path fill="#FFFFFF" d="M741.034,28.18c-1.239,0-2.199-0.382-2.879-1.145c-0.68-0.764-1.02-1.843-1.02-3.238
		c0-1.433,0.345-2.54,1.035-3.321s1.673-1.172,2.949-1.172c0.411,0,0.823,0.044,1.234,0.133c0.411,0.089,0.734,0.193,0.969,0.312
		l-0.398,1.102c-0.286-0.114-0.599-0.209-0.938-0.285c-0.339-0.075-0.638-0.113-0.898-0.113c-1.739,0-2.609,1.109-2.609,3.329
		c0,1.052,0.212,1.859,0.637,2.422s1.054,0.844,1.887,0.844c0.714,0,1.445-0.154,2.195-0.461v1.148
		C742.625,28.031,741.904,28.18,741.034,28.18z"/>
	<path fill="#FFFFFF" d="M745.12,17.14c0-0.297,0.073-0.514,0.219-0.652c0.146-0.138,0.328-0.207,0.547-0.207
		c0.208,0,0.388,0.07,0.539,0.211s0.227,0.357,0.227,0.648c0,0.292-0.075,0.509-0.227,0.652c-0.151,0.144-0.331,0.215-0.539,0.215
		c-0.219,0-0.401-0.071-0.547-0.215C745.193,17.649,745.12,17.432,745.12,17.14z M746.526,28.023h-1.297V19.46h1.297V28.023z"/>
	<path fill="#FFFFFF" d="M754.542,28.023l-0.258-1.219h-0.062c-0.427,0.536-0.853,0.899-1.277,1.09
		c-0.425,0.189-0.954,0.285-1.59,0.285c-0.849,0-1.515-0.219-1.996-0.656s-0.723-1.061-0.723-1.867c0-1.729,1.383-2.636,4.148-2.719
		l1.453-0.047v-0.531c0-0.672-0.145-1.168-0.434-1.488s-0.751-0.48-1.387-0.48c-0.714,0-1.521,0.219-2.422,0.656l-0.398-0.992
		c0.422-0.229,0.884-0.409,1.387-0.539c0.503-0.13,1.007-0.195,1.512-0.195c1.021,0,1.777,0.227,2.27,0.68s0.738,1.18,0.738,2.18
		v5.844H754.542z M751.612,27.109c0.808,0,1.441-0.222,1.902-0.664c0.461-0.443,0.691-1.062,0.691-1.859v-0.773l-1.297,0.055
		c-1.031,0.036-1.774,0.196-2.23,0.48c-0.456,0.283-0.684,0.725-0.684,1.324c0,0.469,0.142,0.825,0.426,1.07
		C750.705,26.986,751.102,27.109,751.612,27.109z"/>
	<path fill="#FFFFFF" d="M759.472,28.023h-1.297V15.867h1.297V28.023z"/>
	<path fill="#FFFFFF" d="M773.815,19.929c0,1.156-0.395,2.046-1.184,2.668c-0.789,0.623-1.918,0.934-3.387,0.934h-1.344v4.492
		h-1.328V16.601h2.961C772.389,16.601,773.815,17.71,773.815,19.929z M767.901,22.39h1.195c1.177,0,2.028-0.19,2.555-0.57
		c0.526-0.38,0.789-0.989,0.789-1.828c0-0.755-0.247-1.317-0.742-1.688c-0.495-0.37-1.266-0.555-2.312-0.555h-1.484V22.39z"/>
	<path fill="#FFFFFF" d="M777.308,28.023h-1.297V15.867h1.297V28.023z"/>
	<path fill="#FFFFFF" d="M785.323,28.023l-0.258-1.219h-0.062c-0.427,0.536-0.853,0.899-1.277,1.09
		c-0.425,0.189-0.954,0.285-1.59,0.285c-0.849,0-1.515-0.219-1.996-0.656s-0.723-1.061-0.723-1.867c0-1.729,1.383-2.636,4.148-2.719
		l1.453-0.047v-0.531c0-0.672-0.145-1.168-0.434-1.488s-0.751-0.48-1.387-0.48c-0.714,0-1.521,0.219-2.422,0.656l-0.398-0.992
		c0.422-0.229,0.884-0.409,1.387-0.539c0.503-0.13,1.007-0.195,1.512-0.195c1.021,0,1.777,0.227,2.27,0.68s0.738,1.18,0.738,2.18
		v5.844H785.323z M782.394,27.109c0.808,0,1.441-0.222,1.902-0.664c0.461-0.443,0.691-1.062,0.691-1.859v-0.773l-1.297,0.055
		c-1.031,0.036-1.774,0.196-2.23,0.48c-0.456,0.283-0.684,0.725-0.684,1.324c0,0.469,0.142,0.825,0.426,1.07
		C781.486,26.986,781.883,27.109,782.394,27.109z"/>
	<path fill="#FFFFFF" d="M787.597,19.46h1.391l1.875,4.883c0.411,1.114,0.667,1.919,0.766,2.414h0.062
		c0.067-0.266,0.21-0.721,0.426-1.363c0.216-0.644,0.923-2.622,2.121-5.934h1.391l-3.68,9.75c-0.364,0.963-0.79,1.646-1.277,2.051
		c-0.487,0.402-1.085,0.605-1.793,0.605c-0.396,0-0.786-0.045-1.172-0.133v-1.039c0.286,0.062,0.606,0.094,0.961,0.094
		c0.891,0,1.526-0.5,1.906-1.5l0.477-1.219L787.597,19.46z"/>
	<path fill="#FFFFFF" d="M802.542,25.688c0,0.797-0.297,1.411-0.891,1.844c-0.594,0.432-1.427,0.648-2.5,0.648
		c-1.136,0-2.021-0.18-2.656-0.539v-1.203c0.411,0.208,0.853,0.372,1.324,0.492c0.472,0.119,0.926,0.18,1.363,0.18
		c0.677,0,1.198-0.108,1.562-0.324c0.364-0.217,0.547-0.546,0.547-0.988c0-0.334-0.145-0.619-0.434-0.855
		c-0.289-0.237-0.853-0.518-1.691-0.84c-0.797-0.297-1.363-0.557-1.699-0.777c-0.336-0.222-0.586-0.473-0.75-0.754
		s-0.246-0.617-0.246-1.008c0-0.698,0.284-1.249,0.852-1.652c0.567-0.403,1.347-0.605,2.336-0.605c0.922,0,1.823,0.188,2.703,0.562
		l-0.461,1.055c-0.859-0.354-1.638-0.531-2.336-0.531c-0.614,0-1.078,0.097-1.391,0.289c-0.312,0.193-0.469,0.458-0.469,0.797
		c0,0.229,0.059,0.425,0.176,0.586c0.117,0.162,0.306,0.315,0.566,0.461c0.261,0.146,0.761,0.357,1.5,0.633
		c1.016,0.369,1.702,0.742,2.059,1.117S802.542,25.119,802.542,25.688z"/>
	<path fill="#FFFFFF" d="M807.417,27.109c0.229,0,0.45-0.018,0.664-0.051c0.214-0.034,0.383-0.069,0.508-0.105v0.992
		c-0.141,0.067-0.348,0.123-0.621,0.168c-0.273,0.043-0.52,0.066-0.738,0.066c-1.656,0-2.484-0.873-2.484-2.617v-5.094h-1.227
		v-0.625l1.227-0.539l0.547-1.828h0.75v1.984h2.484v1.008h-2.484v5.04c0,0.516,0.122,0.911,0.367,1.188
		C806.654,26.971,806.99,27.109,807.417,27.109z"/>
	<path fill="#FFFFFF" d="M815.565,28.023l-0.258-1.219h-0.062c-0.427,0.536-0.853,0.899-1.277,1.09
		c-0.425,0.189-0.954,0.285-1.59,0.285c-0.849,0-1.515-0.219-1.996-0.656s-0.723-1.061-0.723-1.867c0-1.729,1.383-2.636,4.148-2.719
		l1.453-0.047v-0.531c0-0.672-0.145-1.168-0.434-1.488s-0.751-0.48-1.387-0.48c-0.714,0-1.521,0.219-2.422,0.656l-0.398-0.992
		c0.422-0.229,0.884-0.409,1.387-0.539c0.503-0.13,1.007-0.195,1.512-0.195c1.021,0,1.777,0.227,2.27,0.68s0.738,1.18,0.738,2.18
		v5.844H815.565z M812.636,27.109c0.808,0,1.441-0.222,1.902-0.664c0.461-0.443,0.691-1.062,0.691-1.859v-0.773l-1.297,0.055
		c-1.031,0.036-1.774,0.196-2.23,0.48c-0.456,0.283-0.684,0.725-0.684,1.324c0,0.469,0.142,0.825,0.426,1.07
		C811.729,26.986,812.125,27.109,812.636,27.109z"/>
	<path fill="#FFFFFF" d="M821.964,27.109c0.229,0,0.45-0.018,0.664-0.051c0.214-0.034,0.383-0.069,0.508-0.105v0.992
		c-0.141,0.067-0.348,0.123-0.621,0.168c-0.273,0.043-0.52,0.066-0.738,0.066c-1.656,0-2.484-0.873-2.484-2.617v-5.094h-1.227
		v-0.625l1.227-0.539l0.547-1.828h0.75v1.984h2.484v1.008h-2.484v5.04c0,0.516,0.122,0.911,0.367,1.188
		C821.201,26.971,821.537,27.109,821.964,27.109z"/>
	<path fill="#FFFFFF" d="M824.737,17.14c0-0.297,0.073-0.514,0.219-0.652c0.146-0.138,0.328-0.207,0.547-0.207
		c0.208,0,0.388,0.07,0.539,0.211s0.227,0.357,0.227,0.648c0,0.292-0.075,0.509-0.227,0.652c-0.151,0.144-0.331,0.215-0.539,0.215
		c-0.219,0-0.401-0.071-0.547-0.215C824.811,17.649,824.737,17.432,824.737,17.14z M826.144,28.023h-1.297V19.46h1.297V28.023z"/>
	<path fill="#FFFFFF" d="M836.284,23.734c0,1.396-0.352,2.485-1.055,3.27c-0.703,0.783-1.675,1.176-2.914,1.176
		c-0.766,0-1.445-0.18-2.039-0.539s-1.052-0.875-1.375-1.547s-0.484-1.459-0.484-2.359c0-1.396,0.349-2.483,1.047-3.262
		c0.698-0.778,1.667-1.168,2.906-1.168c1.198,0,2.149,0.398,2.855,1.195S836.284,22.375,836.284,23.734z M829.761,23.734
		c0,1.094,0.219,1.927,0.656,2.5c0.438,0.572,1.081,0.859,1.93,0.859s1.493-0.285,1.934-0.855s0.66-1.405,0.66-2.504
		c0-1.089-0.22-1.916-0.66-2.481c-0.44-0.565-1.09-0.848-1.949-0.848c-0.849,0-1.489,0.279-1.922,0.836
		C829.977,21.799,829.761,22.63,829.761,23.734z"/>
	<path fill="#FFFFFF" d="M844.417,28.023v-5.54c0-0.698-0.159-1.219-0.477-1.562s-0.815-0.516-1.492-0.516
		c-0.896,0-1.552,0.242-1.969,0.727s-0.625,1.284-0.625,2.399v4.492h-1.297V19.46h1.055l0.211,1.172h0.062
		c0.266-0.422,0.638-0.749,1.117-0.98c0.479-0.231,1.013-0.348,1.602-0.348c1.031,0,1.808,0.249,2.328,0.746
		c0.521,0.498,0.781,1.293,0.781,2.387v5.586H844.417z"/>
</g>
<g>
	<path fill="#FFFFFF" d="M870.564,22.039h3.883v5.555c-0.604,0.192-1.219,0.338-1.844,0.438c-0.625,0.098-1.35,0.148-2.172,0.148
		c-1.729,0-3.076-0.515-4.039-1.543c-0.964-1.029-1.445-2.471-1.445-4.325c0-1.188,0.238-2.228,0.715-3.121
		c0.477-0.893,1.162-1.575,2.059-2.047c0.896-0.471,1.945-0.707,3.148-0.707c1.219,0,2.354,0.224,3.406,0.672l-0.516,1.172
		c-1.031-0.438-2.023-0.656-2.977-0.656c-1.391,0-2.477,0.414-3.258,1.242s-1.172,1.977-1.172,3.445
		c0,1.542,0.376,2.711,1.129,3.508c0.752,0.797,1.857,1.195,3.316,1.195c0.791,0,1.564-0.092,2.32-0.273v-3.516h-2.555V22.039z"/>
	<path fill="#FFFFFF" d="M882.26,28.023l-0.258-1.219h-0.062c-0.428,0.536-0.854,0.899-1.277,1.09
		c-0.425,0.189-0.955,0.285-1.59,0.285c-0.85,0-1.515-0.219-1.996-0.656c-0.482-0.438-0.723-1.061-0.723-1.867
		c0-1.729,1.383-2.636,4.148-2.719l1.453-0.047v-0.531c0-0.672-0.145-1.168-0.434-1.488s-0.752-0.48-1.387-0.48
		c-0.714,0-1.521,0.219-2.422,0.656l-0.398-0.992c0.422-0.229,0.884-0.409,1.387-0.539c0.502-0.13,1.006-0.195,1.512-0.195
		c1.021,0,1.777,0.227,2.27,0.68s0.738,1.18,0.738,2.18v5.844H882.26z M879.33,27.109c0.807,0,1.441-0.222,1.902-0.664
		c0.461-0.443,0.691-1.062,0.691-1.859v-0.773l-1.297,0.055c-1.031,0.036-1.775,0.196-2.23,0.48
		c-0.456,0.283-0.684,0.725-0.684,1.324c0,0.469,0.142,0.825,0.426,1.07C878.422,26.986,878.819,27.109,879.33,27.109z"/>
	<path fill="#FFFFFF" d="M896.807,28.023v-5.571c0-0.682-0.146-1.194-0.438-1.535c-0.292-0.341-0.745-0.512-1.359-0.512
		c-0.808,0-1.404,0.232-1.789,0.695c-0.386,0.464-0.578,1.177-0.578,2.141v4.781h-1.297v-5.571c0-0.682-0.146-1.194-0.438-1.535
		c-0.292-0.341-0.748-0.512-1.367-0.512c-0.812,0-1.408,0.244-1.785,0.73c-0.378,0.487-0.566,1.285-0.566,2.395v4.492h-1.297V19.46
		h1.055l0.211,1.172h0.062c0.244-0.417,0.59-0.742,1.035-0.977s0.943-0.352,1.496-0.352c1.338,0,2.213,0.484,2.625,1.453h0.062
		c0.255-0.448,0.625-0.802,1.109-1.062c0.484-0.26,1.036-0.391,1.656-0.391c0.969,0,1.693,0.249,2.176,0.746
		c0.481,0.498,0.723,1.293,0.723,2.387v5.586H896.807z"/>
	<path fill="#FFFFFF" d="M904.393,28.18c-1.266,0-2.265-0.386-2.996-1.156c-0.732-0.771-1.098-1.842-1.098-3.211
		c0-1.38,0.34-2.477,1.02-3.29s1.592-1.219,2.738-1.219c1.072,0,1.922,0.353,2.547,1.059c0.625,0.706,0.938,1.637,0.938,2.793v0.82
		h-5.898c0.025,1.005,0.279,1.768,0.762,2.289c0.481,0.521,1.16,0.781,2.035,0.781c0.922,0,1.833-0.193,2.734-0.578v1.156
		c-0.459,0.197-0.893,0.34-1.301,0.426C905.464,28.137,904.971,28.18,904.393,28.18z M904.041,20.39
		c-0.688,0-1.236,0.224-1.645,0.672c-0.409,0.448-0.65,1.068-0.723,1.859h4.477c0-0.817-0.183-1.444-0.547-1.879
		C905.238,20.608,904.718,20.39,904.041,20.39z"/>
	<path fill="#FFFFFF" d="M915.275,25.688c0,0.797-0.297,1.411-0.891,1.844c-0.594,0.432-1.428,0.648-2.5,0.648
		c-1.136,0-2.021-0.18-2.656-0.539v-1.203c0.411,0.208,0.853,0.372,1.324,0.492c0.471,0.119,0.926,0.18,1.363,0.18
		c0.677,0,1.197-0.108,1.562-0.324c0.364-0.217,0.547-0.546,0.547-0.988c0-0.334-0.145-0.619-0.434-0.855
		c-0.289-0.237-0.854-0.518-1.691-0.84c-0.797-0.297-1.363-0.557-1.699-0.777c-0.336-0.222-0.586-0.473-0.75-0.754
		s-0.246-0.617-0.246-1.008c0-0.698,0.283-1.249,0.852-1.652c0.567-0.403,1.346-0.605,2.336-0.605c0.922,0,1.822,0.188,2.703,0.562
		l-0.461,1.055c-0.859-0.354-1.639-0.531-2.336-0.531c-0.615,0-1.078,0.097-1.391,0.289c-0.312,0.193-0.469,0.458-0.469,0.797
		c0,0.229,0.059,0.425,0.176,0.586c0.117,0.162,0.306,0.315,0.566,0.461c0.26,0.146,0.76,0.357,1.5,0.633
		c1.016,0.369,1.701,0.742,2.059,1.117C915.097,24.648,915.275,25.119,915.275,25.688z"/>
	<path fill="#FFFFFF" d="M928.299,28.023v-5.571c0-0.682-0.146-1.194-0.438-1.535c-0.292-0.341-0.745-0.512-1.359-0.512
		c-0.808,0-1.404,0.232-1.789,0.695c-0.386,0.464-0.578,1.177-0.578,2.141v4.781h-1.297v-5.571c0-0.682-0.146-1.194-0.438-1.535
		c-0.292-0.341-0.748-0.512-1.367-0.512c-0.812,0-1.408,0.244-1.785,0.73c-0.378,0.487-0.566,1.285-0.566,2.395v4.492h-1.297V19.46
		h1.055l0.211,1.172h0.062c0.244-0.417,0.59-0.742,1.035-0.977s0.943-0.352,1.496-0.352c1.338,0,2.213,0.484,2.625,1.453h0.062
		c0.255-0.448,0.625-0.802,1.109-1.062c0.484-0.26,1.036-0.391,1.656-0.391c0.969,0,1.693,0.249,2.176,0.746
		c0.481,0.498,0.723,1.293,0.723,2.387v5.586H928.299z"/>
	<path fill="#FFFFFF" d="M937.533,28.023l-0.258-1.219h-0.062c-0.428,0.536-0.854,0.899-1.277,1.09
		c-0.425,0.189-0.955,0.285-1.59,0.285c-0.85,0-1.515-0.219-1.996-0.656c-0.482-0.438-0.723-1.061-0.723-1.867
		c0-1.729,1.383-2.636,4.148-2.719l1.453-0.047v-0.531c0-0.672-0.145-1.168-0.434-1.488s-0.752-0.48-1.387-0.48
		c-0.714,0-1.521,0.219-2.422,0.656l-0.398-0.992c0.422-0.229,0.884-0.409,1.387-0.539c0.502-0.13,1.006-0.195,1.512-0.195
		c1.021,0,1.777,0.227,2.27,0.68s0.738,1.18,0.738,2.18v5.844H937.533z M934.604,27.109c0.807,0,1.441-0.222,1.902-0.664
		c0.461-0.443,0.691-1.062,0.691-1.859v-0.773l-1.297,0.055c-1.031,0.036-1.775,0.196-2.23,0.48
		c-0.456,0.283-0.684,0.725-0.684,1.324c0,0.469,0.142,0.825,0.426,1.07C933.695,26.986,934.093,27.109,934.604,27.109z"/>
	<path fill="#FFFFFF" d="M946.689,25.688c0,0.797-0.297,1.411-0.891,1.844c-0.594,0.432-1.428,0.648-2.5,0.648
		c-1.136,0-2.021-0.18-2.656-0.539v-1.203c0.411,0.208,0.853,0.372,1.324,0.492c0.471,0.119,0.926,0.18,1.363,0.18
		c0.677,0,1.197-0.108,1.562-0.324c0.364-0.217,0.547-0.546,0.547-0.988c0-0.334-0.145-0.619-0.434-0.855
		c-0.289-0.237-0.854-0.518-1.691-0.84c-0.797-0.297-1.363-0.557-1.699-0.777c-0.336-0.222-0.586-0.473-0.75-0.754
		s-0.246-0.617-0.246-1.008c0-0.698,0.283-1.249,0.852-1.652c0.567-0.403,1.346-0.605,2.336-0.605c0.922,0,1.822,0.188,2.703,0.562
		l-0.461,1.055c-0.859-0.354-1.639-0.531-2.336-0.531c-0.615,0-1.078,0.097-1.391,0.289c-0.312,0.193-0.469,0.458-0.469,0.797
		c0,0.229,0.059,0.425,0.176,0.586c0.117,0.162,0.306,0.315,0.566,0.461c0.26,0.146,0.76,0.357,1.5,0.633
		c1.016,0.369,1.701,0.742,2.059,1.117C946.511,24.648,946.689,25.119,946.689,25.688z"/>
	<path fill="#FFFFFF" d="M951.564,27.109c0.229,0,0.45-0.018,0.664-0.051c0.213-0.034,0.383-0.069,0.508-0.105v0.992
		c-0.141,0.067-0.348,0.123-0.621,0.168c-0.273,0.043-0.52,0.066-0.738,0.066c-1.656,0-2.484-0.873-2.484-2.617v-5.094h-1.227
		v-0.625l1.227-0.539l0.547-1.828h0.75v1.984h2.484v1.008h-2.484v5.04c0,0.516,0.122,0.911,0.367,1.188
		C950.801,26.971,951.137,27.109,951.564,27.109z"/>
	<path fill="#FFFFFF" d="M958.064,28.18c-1.266,0-2.265-0.386-2.996-1.156c-0.732-0.771-1.098-1.842-1.098-3.211
		c0-1.38,0.34-2.477,1.02-3.29s1.592-1.219,2.738-1.219c1.072,0,1.922,0.353,2.547,1.059c0.625,0.706,0.938,1.637,0.938,2.793v0.82
		h-5.898c0.025,1.005,0.279,1.768,0.762,2.289c0.481,0.521,1.16,0.781,2.035,0.781c0.922,0,1.833-0.193,2.734-0.578v1.156
		c-0.459,0.197-0.893,0.34-1.301,0.426C959.136,28.137,958.643,28.18,958.064,28.18z M957.713,20.39
		c-0.688,0-1.236,0.224-1.645,0.672c-0.409,0.448-0.65,1.068-0.723,1.859h4.477c0-0.817-0.183-1.444-0.547-1.879
		C958.91,20.608,958.39,20.39,957.713,20.39z"/>
	<path fill="#FFFFFF" d="M967.33,19.304c0.38,0,0.721,0.031,1.023,0.094l-0.18,1.203c-0.354-0.078-0.667-0.117-0.938-0.117
		c-0.693,0-1.285,0.281-1.777,0.844s-0.738,1.263-0.738,2.102v4.594h-1.297V19.46h1.07l0.148,1.586h0.062
		c0.317-0.557,0.7-0.987,1.148-1.289C966.301,19.456,966.793,19.304,967.33,19.304z"/>
</g>
<g>
	<path fill="#FFFFFF" d="M990.299,28.023h-6.367V16.601h6.367v1.18h-5.039v3.68h4.734v1.172h-4.734v4.204h5.039V28.023z"/>
	<path fill="#FFFFFF" d="M998.463,26.875h-0.07c-0.6,0.869-1.495,1.305-2.688,1.305c-1.12,0-1.991-0.383-2.613-1.148
		c-0.623-0.766-0.934-1.854-0.934-3.266c0-1.412,0.312-2.508,0.938-3.29s1.494-1.172,2.609-1.172c1.161,0,2.052,0.422,2.672,1.266
		h0.102l-0.055-0.617l-0.031-0.602v-3.484h1.297v12.157h-1.055L998.463,26.875z M995.869,27.094c0.885,0,1.527-0.241,1.926-0.723
		c0.398-0.482,0.598-1.26,0.598-2.332v-0.273c0-1.214-0.202-2.08-0.605-2.598c-0.404-0.518-1.049-0.777-1.934-0.777
		c-0.761,0-1.343,0.296-1.746,0.887c-0.404,0.591-0.605,1.426-0.605,2.504c0,1.094,0.2,1.919,0.602,2.477
		C994.504,26.814,995.093,27.094,995.869,27.094z"/>
	<path fill="#FFFFFF" d="M1009.447,19.46v0.82l-1.586,0.188c0.146,0.183,0.275,0.421,0.391,0.715
		c0.114,0.294,0.172,0.626,0.172,0.996c0,0.838-0.287,1.508-0.859,2.008c-0.573,0.5-1.359,0.75-2.359,0.75
		c-0.256,0-0.495-0.021-0.719-0.062c-0.553,0.291-0.828,0.658-0.828,1.102c0,0.234,0.096,0.407,0.289,0.52
		c0.192,0.111,0.523,0.168,0.992,0.168h1.516c0.927,0,1.639,0.195,2.137,0.586c0.497,0.391,0.746,0.957,0.746,1.703
		c0,0.947-0.381,1.67-1.141,2.168c-0.761,0.496-1.87,0.746-3.328,0.746c-1.12,0-1.983-0.209-2.59-0.625
		c-0.607-0.418-0.91-1.006-0.91-1.766c0-0.521,0.166-0.973,0.5-1.352c0.333-0.381,0.802-0.639,1.406-0.773
		c-0.219-0.1-0.402-0.253-0.551-0.461c-0.148-0.209-0.223-0.451-0.223-0.727c0-0.312,0.083-0.586,0.25-0.82
		c0.166-0.234,0.43-0.461,0.789-0.68c-0.443-0.183-0.804-0.492-1.082-0.93c-0.279-0.438-0.418-0.938-0.418-1.5
		c0-0.938,0.281-1.66,0.844-2.168s1.359-0.762,2.391-0.762c0.447,0,0.852,0.052,1.211,0.156H1009.447z M1002.619,29.461
		c0,0.463,0.195,0.814,0.586,1.055c0.391,0.238,0.95,0.359,1.68,0.359c1.088,0,1.895-0.164,2.418-0.488
		c0.523-0.326,0.785-0.768,0.785-1.324c0-0.465-0.144-0.785-0.43-0.965c-0.287-0.18-0.826-0.27-1.617-0.27h-1.555
		c-0.589,0-1.047,0.141-1.375,0.422S1002.619,28.934,1002.619,29.461z M1003.322,22.203c0,0.599,0.169,1.052,0.508,1.36
		c0.338,0.307,0.81,0.461,1.414,0.461c1.266,0,1.898-0.615,1.898-1.844c0-1.286-0.641-1.93-1.922-1.93
		c-0.609,0-1.078,0.164-1.406,0.492S1003.322,21.557,1003.322,22.203z"/>
	<path fill="#FFFFFF" d="M1014.822,28.18c-1.266,0-2.265-0.386-2.996-1.156c-0.732-0.771-1.098-1.842-1.098-3.211
		c0-1.38,0.34-2.477,1.02-3.29s1.592-1.219,2.738-1.219c1.072,0,1.922,0.353,2.547,1.059c0.625,0.706,0.938,1.637,0.938,2.793v0.82
		h-5.898c0.025,1.005,0.279,1.768,0.762,2.289c0.481,0.521,1.16,0.781,2.035,0.781c0.922,0,1.833-0.193,2.734-0.578v1.156
		c-0.459,0.197-0.893,0.34-1.301,0.426C1015.894,28.137,1015.4,28.18,1014.822,28.18z M1014.471,20.39
		c-0.688,0-1.236,0.224-1.645,0.672c-0.409,0.448-0.65,1.068-0.723,1.859h4.477c0-0.817-0.183-1.444-0.547-1.879
		C1015.668,20.608,1015.147,20.39,1014.471,20.39z"/>
</g>
<g>
	<path fill="#FFFFFF" d="M1045.77,24.984c0,1.005-0.365,1.789-1.094,2.352c-0.729,0.562-1.719,0.844-2.969,0.844
		c-1.354,0-2.396-0.175-3.125-0.523v-1.281c0.469,0.197,0.979,0.354,1.531,0.469c0.552,0.114,1.099,0.172,1.641,0.172
		c0.885,0,1.552-0.168,2-0.504c0.447-0.336,0.672-0.804,0.672-1.402c0-0.396-0.08-0.721-0.238-0.973
		c-0.159-0.253-0.425-0.486-0.797-0.699c-0.373-0.214-0.939-0.456-1.699-0.727c-1.062-0.38-1.822-0.831-2.277-1.352
		c-0.456-0.521-0.684-1.2-0.684-2.039c0-0.88,0.33-1.581,0.992-2.102c0.661-0.521,1.536-0.781,2.625-0.781
		c1.135,0,2.18,0.208,3.133,0.625l-0.414,1.156c-0.943-0.396-1.859-0.594-2.75-0.594c-0.703,0-1.253,0.151-1.648,0.453
		c-0.396,0.302-0.594,0.722-0.594,1.258c0,0.396,0.072,0.72,0.219,0.973c0.146,0.253,0.392,0.484,0.738,0.695
		c0.346,0.211,0.876,0.444,1.59,0.699c1.197,0.427,2.021,0.886,2.473,1.375C1045.544,23.567,1045.77,24.203,1045.77,24.984z"/>
	<path fill="#FFFFFF" d="M1049.434,28.023h-1.328V16.601h6.367v1.18h-5.039v4.18h4.734v1.18h-4.734V28.023z"/>
	<path fill="#FFFFFF" d="M1063.965,28.023h-1.508l-3.07-5.024l-3.125,5.024h-1.406l3.797-5.969l-3.539-5.453h1.469l2.836,4.523
		l2.859-4.523h1.414l-3.539,5.406L1063.965,28.023z"/>
</g>
<g>
	<path fill="#FFFFFF" d="M1090.155,28.023h-1.328V17.781h-3.617v-1.18h8.562v1.18h-3.617V28.023z"/>
	<path fill="#FFFFFF" d="M1102.687,23.734c0,1.396-0.352,2.485-1.055,3.27c-0.703,0.783-1.675,1.176-2.914,1.176
		c-0.766,0-1.445-0.18-2.039-0.539s-1.052-0.875-1.375-1.547s-0.484-1.459-0.484-2.359c0-1.396,0.349-2.483,1.047-3.262
		c0.698-0.778,1.667-1.168,2.906-1.168c1.198,0,2.149,0.398,2.855,1.195S1102.687,22.375,1102.687,23.734z M1096.163,23.734
		c0,1.094,0.219,1.927,0.656,2.5c0.438,0.572,1.081,0.859,1.93,0.859s1.493-0.285,1.934-0.855s0.66-1.405,0.66-2.504
		c0-1.089-0.22-1.916-0.66-2.481c-0.44-0.565-1.09-0.848-1.949-0.848c-0.849,0-1.489,0.279-1.922,0.836
		C1096.379,21.799,1096.163,22.63,1096.163,23.734z"/>
	<path fill="#FFFFFF" d="M1107.726,27.109c0.229,0,0.45-0.018,0.664-0.051c0.214-0.034,0.383-0.069,0.508-0.105v0.992
		c-0.141,0.067-0.348,0.123-0.621,0.168c-0.273,0.043-0.52,0.066-0.738,0.066c-1.656,0-2.484-0.873-2.484-2.617v-5.094h-1.227
		v-0.625l1.227-0.539l0.547-1.828h0.75v1.984h2.484v1.008h-2.484v5.04c0,0.516,0.122,0.911,0.367,1.188
		C1106.963,26.971,1107.299,27.109,1107.726,27.109z"/>
	<path fill="#FFFFFF" d="M1115.874,28.023l-0.258-1.219h-0.062c-0.427,0.536-0.853,0.899-1.277,1.09
		c-0.425,0.189-0.954,0.285-1.59,0.285c-0.849,0-1.515-0.219-1.996-0.656s-0.723-1.061-0.723-1.867c0-1.729,1.383-2.636,4.148-2.719
		l1.453-0.047v-0.531c0-0.672-0.145-1.168-0.434-1.488s-0.751-0.48-1.387-0.48c-0.714,0-1.521,0.219-2.422,0.656l-0.398-0.992
		c0.422-0.229,0.884-0.409,1.387-0.539c0.503-0.13,1.007-0.195,1.512-0.195c1.021,0,1.777,0.227,2.27,0.68s0.738,1.18,0.738,2.18
		v5.844H1115.874z M1112.944,27.109c0.808,0,1.441-0.222,1.902-0.664c0.461-0.443,0.691-1.062,0.691-1.859v-0.773l-1.297,0.055
		c-1.031,0.036-1.774,0.196-2.23,0.48c-0.456,0.283-0.684,0.725-0.684,1.324c0,0.469,0.142,0.825,0.426,1.07
		C1112.037,26.986,1112.434,27.109,1112.944,27.109z"/>
	<path fill="#FFFFFF" d="M1120.804,28.023h-1.297V15.867h1.297V28.023z"/>
	<path fill="#FFFFFF" d="M1129.233,28.023h-1.328V16.601h6.367v1.18h-5.039v4.18h4.734v1.18h-4.734V28.023z"/>
	<path fill="#FFFFFF" d="M1135.858,17.14c0-0.297,0.073-0.514,0.219-0.652c0.146-0.138,0.328-0.207,0.547-0.207
		c0.208,0,0.388,0.07,0.539,0.211s0.227,0.357,0.227,0.648c0,0.292-0.075,0.509-0.227,0.652c-0.151,0.144-0.331,0.215-0.539,0.215
		c-0.219,0-0.401-0.071-0.547-0.215C1135.932,17.649,1135.858,17.432,1135.858,17.14z M1137.265,28.023h-1.297V19.46h1.297V28.023z"
		/>
	<path fill="#FFFFFF" d="M1141.312,28.023h-1.297V15.867h1.297V28.023z"/>
	<path fill="#FFFFFF" d="M1154.976,28.023v-5.571c0-0.682-0.146-1.194-0.438-1.535c-0.292-0.341-0.745-0.512-1.359-0.512
		c-0.808,0-1.403,0.232-1.789,0.695c-0.386,0.464-0.578,1.177-0.578,2.141v4.781h-1.297v-5.571c0-0.682-0.146-1.194-0.438-1.535
		c-0.292-0.341-0.747-0.512-1.367-0.512c-0.812,0-1.407,0.244-1.785,0.73c-0.378,0.487-0.566,1.285-0.566,2.395v4.492h-1.297V19.46
		h1.055l0.211,1.172h0.062c0.245-0.417,0.59-0.742,1.035-0.977s0.944-0.352,1.496-0.352c1.339,0,2.214,0.484,2.625,1.453h0.062
		c0.255-0.448,0.625-0.802,1.109-1.062c0.484-0.26,1.036-0.391,1.656-0.391c0.969,0,1.694,0.249,2.176,0.746
		c0.481,0.498,0.723,1.293,0.723,2.387v5.586H1154.976z"/>
</g>
</svg>
