<?xml version="1.0" encoding="utf-8"?>
<!-- Generator: Adobe Illustrator 16.2.1, SVG Export Plug-In . SVG Version: 6.00 Build 0)  -->
<!DOCTYPE svg PUBLIC "-//W3C//DTD SVG 1.1//EN" "http://www.w3.org/Graphics/SVG/1.1/DTD/svg11.dtd">
<svg version="1.1" id="Layer_1" xmlns="http://www.w3.org/2000/svg" xmlns:xlink="http://www.w3.org/1999/xlink" x="0px" y="0px"
	 width="1179.139px" height="44px" viewBox="0 0 1179.139 44" enable-background="new 0 0 1179.139 44" xml:space="preserve">
<rect fill="#232128" stroke="#000000" stroke-miterlimit="10" width="1180.082" height="44"/>
<g>
	<path fill="#FFFFFF" d="M28.963,28.023h-1.516l-6.242-9.586h-0.062c0.083,1.125,0.125,2.156,0.125,3.094v6.492h-1.227V16.601h1.5
		l6.227,9.547h0.062c-0.011-0.142-0.034-0.594-0.07-1.355c-0.037-0.764-0.05-1.309-0.039-1.637v-6.555h1.242V28.023z"/>
	<path fill="#FFFFFF" d="M35.526,28.18c-1.266,0-2.265-0.386-2.996-1.156c-0.732-0.771-1.098-1.842-1.098-3.211
		c0-1.379,0.34-2.477,1.02-3.29c0.68-0.813,1.592-1.219,2.738-1.219c1.073,0,1.922,0.353,2.547,1.059
		c0.625,0.706,0.938,1.637,0.938,2.793v0.82h-5.898c0.026,1.004,0.28,1.768,0.762,2.289c0.481,0.521,1.16,0.78,2.035,0.78
		c0.922,0,1.833-0.192,2.734-0.578v1.156c-0.458,0.196-0.892,0.34-1.301,0.426C36.597,28.137,36.104,28.18,35.526,28.18z
		 M35.174,20.39c-0.688,0-1.236,0.224-1.645,0.672c-0.409,0.448-0.65,1.068-0.723,1.859h4.477c0-0.817-0.183-1.444-0.547-1.879
		C36.372,20.608,35.851,20.39,35.174,20.39z"/>
	<path fill="#FFFFFF" d="M47.877,28.023L46.307,23c-0.099-0.307-0.284-1.005-0.555-2.094H45.69
		c-0.208,0.912-0.391,1.615-0.547,2.109l-1.617,5.008h-1.5L39.69,19.46h1.359c0.552,2.151,0.973,3.79,1.262,4.915
		s0.454,1.883,0.496,2.273h0.062c0.057-0.297,0.149-0.683,0.277-1.152c0.127-0.473,0.238-0.846,0.332-1.121l1.57-4.915h1.406
		l1.531,4.915c0.292,0.896,0.489,1.648,0.594,2.258h0.062c0.021-0.188,0.077-0.477,0.168-0.867c0.091-0.391,0.634-2.492,1.629-6.305
		h1.344l-2.367,8.562H47.877L47.877,28.023z"/>
	<path fill="#FFFFFF" d="M58.854,25.688c0,0.797-0.297,1.412-0.891,1.845c-0.594,0.432-1.427,0.647-2.5,0.647
		c-1.136,0-2.021-0.18-2.656-0.539v-1.203c0.411,0.209,0.853,0.373,1.324,0.492c0.471,0.119,0.926,0.18,1.363,0.18
		c0.677,0,1.198-0.107,1.562-0.323c0.364-0.218,0.547-0.546,0.547-0.988c0-0.334-0.145-0.618-0.434-0.854
		c-0.289-0.237-0.853-0.519-1.691-0.84c-0.797-0.297-1.363-0.558-1.699-0.777c-0.336-0.223-0.586-0.473-0.75-0.754
		c-0.164-0.281-0.246-0.617-0.246-1.008c0-0.698,0.284-1.249,0.852-1.652c0.567-0.403,1.346-0.605,2.336-0.605
		c0.922,0,1.823,0.188,2.703,0.562l-0.461,1.055c-0.859-0.354-1.638-0.531-2.336-0.531c-0.615,0-1.078,0.097-1.391,0.289
		c-0.312,0.193-0.469,0.458-0.469,0.797c0,0.229,0.059,0.425,0.176,0.586c0.117,0.162,0.306,0.315,0.566,0.46
		c0.26,0.146,0.76,0.357,1.5,0.634c1.016,0.368,1.702,0.741,2.059,1.116C58.675,24.648,58.854,25.119,58.854,25.688z"/>
</g>
<g>
	<path fill="#FFFFFF" d="M83.278,23.273v4.75H81.95V16.601h3.133c1.401,0,2.436,0.269,3.105,0.805
		c0.669,0.537,1.004,1.344,1.004,2.422c0,1.511-0.766,2.531-2.297,3.062l3.102,5.133h-1.57l-2.766-4.75H83.278z M83.278,22.132h1.82
		c0.938,0,1.625-0.186,2.062-0.559c0.438-0.372,0.656-0.931,0.656-1.676c0-0.755-0.223-1.299-0.668-1.633
		c-0.445-0.333-1.16-0.5-2.145-0.5h-1.727v4.368H83.278z"/>
	<path fill="#FFFFFF" d="M95.262,28.18c-1.266,0-2.265-0.386-2.996-1.156c-0.732-0.771-1.098-1.842-1.098-3.211
		c0-1.379,0.34-2.477,1.02-3.29s1.592-1.219,2.738-1.219c1.073,0,1.922,0.353,2.547,1.059c0.625,0.706,0.938,1.637,0.938,2.793v0.82
		h-5.898c0.026,1.004,0.28,1.768,0.762,2.289c0.481,0.521,1.16,0.78,2.035,0.78c0.922,0,1.833-0.192,2.734-0.578v1.156
		c-0.458,0.196-0.892,0.34-1.301,0.426C96.333,28.137,95.84,28.18,95.262,28.18z M94.911,20.39c-0.688,0-1.236,0.224-1.645,0.672
		c-0.409,0.448-0.65,1.068-0.723,1.859h4.477c0-0.817-0.183-1.444-0.547-1.879C96.108,20.608,95.587,20.39,94.911,20.39z"/>
	<path fill="#FFFFFF" d="M102.497,28.023l-3.25-8.563h1.391l1.844,5.079c0.417,1.188,0.661,1.958,0.734,2.312h0.062
		c0.057-0.276,0.238-0.849,0.543-1.716c0.305-0.866,0.988-2.759,2.051-5.676h1.391l-3.25,8.563H102.497z"/>
	<path fill="#FFFFFF" d="M108.528,17.14c0-0.297,0.073-0.514,0.219-0.652c0.146-0.138,0.328-0.207,0.547-0.207
		c0.208,0,0.388,0.07,0.539,0.211c0.151,0.141,0.227,0.357,0.227,0.648c0,0.292-0.076,0.509-0.227,0.652
		c-0.151,0.144-0.331,0.215-0.539,0.215c-0.219,0-0.401-0.071-0.547-0.215C108.601,17.649,108.528,17.432,108.528,17.14z
		 M109.934,28.023h-1.297V19.46h1.297V28.023z"/>
	<path fill="#FFFFFF" d="M116.301,28.18c-1.266,0-2.265-0.386-2.996-1.156c-0.732-0.771-1.098-1.842-1.098-3.211
		c0-1.379,0.34-2.477,1.02-3.29s1.592-1.219,2.738-1.219c1.073,0,1.922,0.353,2.547,1.059c0.625,0.706,0.938,1.637,0.938,2.793v0.82
		h-5.898c0.026,1.004,0.28,1.768,0.762,2.289c0.481,0.521,1.16,0.78,2.035,0.78c0.922,0,1.833-0.192,2.734-0.578v1.156
		c-0.458,0.196-0.892,0.34-1.301,0.426C117.373,28.137,116.879,28.18,116.301,28.18z M115.95,20.39
		c-0.688,0-1.236,0.224-1.645,0.672c-0.409,0.448-0.65,1.068-0.723,1.859h4.477c0-0.817-0.183-1.444-0.547-1.879
		C117.147,20.608,116.626,20.39,115.95,20.39z"/>
	<path fill="#FFFFFF" d="M128.653,28.023L127.083,23c-0.099-0.307-0.284-1.005-0.555-2.094h-0.062
		c-0.208,0.912-0.391,1.615-0.547,2.109l-1.617,5.008h-1.5l-2.336-8.562h1.359c0.552,2.151,0.973,3.79,1.262,4.915
		s0.454,1.883,0.496,2.272h0.062c0.057-0.297,0.149-0.682,0.277-1.151c0.127-0.472,0.238-0.847,0.332-1.121l1.57-4.915h1.406
		l1.531,4.915c0.292,0.896,0.489,1.647,0.594,2.258h0.062c0.021-0.188,0.077-0.477,0.168-0.866c0.091-0.392,0.634-2.492,1.629-6.306
		h1.344l-2.367,8.563h-1.538V28.023z"/>
	<path fill="#FFFFFF" d="M139.629,25.688c0,0.797-0.297,1.412-0.891,1.845c-0.594,0.432-1.427,0.647-2.5,0.647
		c-1.136,0-2.021-0.18-2.656-0.539v-1.203c0.411,0.209,0.853,0.373,1.324,0.492c0.471,0.119,0.926,0.18,1.363,0.18
		c0.677,0,1.198-0.107,1.562-0.323c0.364-0.218,0.547-0.546,0.547-0.988c0-0.334-0.145-0.618-0.434-0.854
		c-0.289-0.237-0.853-0.519-1.691-0.84c-0.797-0.297-1.363-0.558-1.699-0.777c-0.336-0.223-0.586-0.473-0.75-0.754
		c-0.164-0.281-0.246-0.617-0.246-1.008c0-0.698,0.284-1.249,0.852-1.652c0.567-0.403,1.346-0.605,2.336-0.605
		c0.922,0,1.823,0.188,2.703,0.562l-0.461,1.055c-0.859-0.354-1.638-0.531-2.336-0.531c-0.615,0-1.078,0.097-1.391,0.289
		c-0.312,0.193-0.469,0.458-0.469,0.797c0,0.229,0.059,0.425,0.176,0.586c0.117,0.162,0.306,0.315,0.566,0.46
		c0.26,0.146,0.76,0.357,1.5,0.634c1.016,0.368,1.702,0.741,2.059,1.116C139.451,24.648,139.629,25.119,139.629,25.688z"/>
</g>
<g>
	<path fill="#FFFFFF" d="M168.502,19.929c0,1.156-0.395,2.046-1.184,2.668c-0.789,0.623-1.918,0.934-3.387,0.934h-1.344v4.492
		h-1.328V16.601h2.961C167.075,16.601,168.502,17.71,168.502,19.929z M162.588,22.39h1.195c1.177,0,2.028-0.19,2.555-0.57
		c0.526-0.38,0.789-0.989,0.789-1.828c0-0.755-0.248-1.317-0.742-1.688c-0.495-0.37-1.266-0.555-2.312-0.555h-1.484L162.588,22.39
		L162.588,22.39z"/>
	<path fill="#FFFFFF" d="M171.994,28.023h-1.297V15.867h1.297V28.023z"/>
	<path fill="#FFFFFF" d="M180.01,28.023l-0.258-1.219h-0.062c-0.427,0.535-0.853,0.898-1.277,1.09
		c-0.425,0.188-0.955,0.285-1.59,0.285c-0.849,0-1.515-0.22-1.996-0.656c-0.482-0.438-0.723-1.062-0.723-1.867
		c0-1.729,1.383-2.637,4.148-2.719l1.453-0.047v-0.532c0-0.672-0.145-1.168-0.434-1.488c-0.289-0.32-0.751-0.48-1.387-0.48
		c-0.714,0-1.521,0.219-2.422,0.656l-0.398-0.992c0.422-0.229,0.884-0.409,1.387-0.539c0.502-0.13,1.006-0.195,1.512-0.195
		c1.021,0,1.777,0.227,2.27,0.68c0.493,0.453,0.738,1.18,0.738,2.18v5.844h-0.961V28.023z M177.08,27.109
		c0.807,0,1.441-0.223,1.902-0.664c0.461-0.443,0.691-1.062,0.691-1.859v-0.773l-1.297,0.056c-1.031,0.036-1.775,0.196-2.23,0.479
		c-0.456,0.283-0.684,0.726-0.684,1.324c0,0.469,0.142,0.825,0.426,1.07C176.172,26.986,176.569,27.109,177.08,27.109z"/>
	<path fill="#FFFFFF" d="M182.283,19.46h1.391l1.875,4.883c0.411,1.114,0.667,1.919,0.766,2.414h0.062
		c0.067-0.266,0.209-0.721,0.426-1.362c0.216-0.645,0.923-2.623,2.121-5.935h1.391l-3.68,9.75c-0.365,0.963-0.791,1.646-1.277,2.051
		c-0.487,0.402-1.085,0.605-1.793,0.605c-0.396,0-0.787-0.046-1.172-0.134v-1.039c0.286,0.062,0.606,0.095,0.961,0.095
		c0.891,0,1.526-0.5,1.906-1.5l0.477-1.22L182.283,19.46z"/>
	<path fill="#FFFFFF" d="M197.229,25.688c0,0.797-0.297,1.412-0.891,1.845c-0.594,0.432-1.427,0.647-2.5,0.647
		c-1.136,0-2.021-0.18-2.656-0.539v-1.203c0.411,0.209,0.853,0.373,1.324,0.492c0.471,0.119,0.926,0.18,1.363,0.18
		c0.677,0,1.198-0.107,1.562-0.323c0.364-0.218,0.547-0.546,0.547-0.988c0-0.334-0.145-0.618-0.434-0.854
		c-0.289-0.237-0.853-0.519-1.691-0.84c-0.797-0.297-1.363-0.558-1.699-0.777c-0.336-0.223-0.586-0.473-0.75-0.754
		c-0.164-0.281-0.246-0.617-0.246-1.008c0-0.698,0.284-1.249,0.852-1.652c0.567-0.403,1.346-0.605,2.336-0.605
		c0.922,0,1.823,0.188,2.703,0.562l-0.461,1.055c-0.859-0.354-1.638-0.531-2.336-0.531c-0.615,0-1.078,0.097-1.391,0.289
		c-0.312,0.193-0.469,0.458-0.469,0.797c0,0.229,0.059,0.425,0.176,0.586c0.117,0.162,0.306,0.315,0.566,0.46
		c0.26,0.146,0.76,0.357,1.5,0.634c1.016,0.368,1.702,0.741,2.059,1.116C197.05,24.648,197.229,25.119,197.229,25.688z"/>
	<path fill="#FFFFFF" d="M202.104,27.109c0.229,0,0.45-0.019,0.664-0.051c0.213-0.035,0.383-0.069,0.508-0.105v0.992
		c-0.141,0.066-0.348,0.123-0.621,0.168c-0.273,0.043-0.52,0.066-0.738,0.066c-1.656,0-2.484-0.873-2.484-2.617v-5.095h-1.227
		v-0.625l1.227-0.539l0.547-1.828h0.75v1.984h2.484v1.008h-2.484v5.04c0,0.516,0.122,0.911,0.367,1.188
		C201.34,26.971,201.676,27.109,202.104,27.109z"/>
	<path fill="#FFFFFF" d="M210.252,28.023l-0.258-1.219h-0.062c-0.427,0.535-0.853,0.898-1.277,1.09
		c-0.425,0.188-0.955,0.285-1.59,0.285c-0.849,0-1.515-0.22-1.996-0.656c-0.482-0.438-0.723-1.062-0.723-1.867
		c0-1.729,1.383-2.637,4.148-2.719l1.453-0.047v-0.532c0-0.672-0.146-1.168-0.434-1.488c-0.289-0.32-0.751-0.48-1.387-0.48
		c-0.714,0-1.521,0.219-2.422,0.656l-0.398-0.992c0.422-0.229,0.884-0.409,1.387-0.539c0.502-0.13,1.006-0.195,1.512-0.195
		c1.021,0,1.777,0.227,2.27,0.68c0.493,0.453,0.738,1.18,0.738,2.18v5.844h-0.961V28.023z M207.322,27.109
		c0.807,0,1.441-0.223,1.902-0.664c0.461-0.443,0.691-1.062,0.691-1.859v-0.773l-1.297,0.056c-1.031,0.036-1.775,0.196-2.23,0.479
		c-0.456,0.283-0.684,0.726-0.684,1.324c0,0.469,0.142,0.825,0.426,1.07C206.415,26.986,206.812,27.109,207.322,27.109z"/>
	<path fill="#FFFFFF" d="M216.65,27.109c0.229,0,0.45-0.019,0.664-0.051c0.213-0.035,0.383-0.069,0.508-0.105v0.992
		c-0.141,0.066-0.348,0.123-0.621,0.168c-0.273,0.043-0.52,0.066-0.738,0.066c-1.656,0-2.484-0.873-2.484-2.617v-5.095h-1.227
		v-0.625l1.227-0.539l0.547-1.828h0.75v1.984h2.484v1.008h-2.484v5.04c0,0.516,0.122,0.911,0.367,1.188
		C215.887,26.971,216.223,27.109,216.65,27.109z"/>
	<path fill="#FFFFFF" d="M219.424,17.14c0-0.297,0.073-0.514,0.219-0.652c0.146-0.138,0.328-0.207,0.547-0.207
		c0.208,0,0.388,0.07,0.539,0.211c0.151,0.141,0.227,0.357,0.227,0.648c0,0.292-0.076,0.509-0.227,0.652
		c-0.151,0.144-0.331,0.215-0.539,0.215c-0.219,0-0.401-0.071-0.547-0.215C219.497,17.649,219.424,17.432,219.424,17.14z
		 M220.83,28.023h-1.297V19.46h1.297V28.023z"/>
	<path fill="#FFFFFF" d="M230.971,23.734c0,1.396-0.352,2.484-1.055,3.27c-0.703,0.783-1.675,1.176-2.914,1.176
		c-0.766,0-1.445-0.18-2.039-0.539c-0.594-0.358-1.052-0.875-1.375-1.547c-0.323-0.672-0.484-1.459-0.484-2.359
		c0-1.396,0.349-2.482,1.047-3.261c0.698-0.778,1.667-1.168,2.906-1.168c1.198,0,2.149,0.398,2.855,1.195
		C230.618,21.296,230.971,22.375,230.971,23.734z M224.447,23.734c0,1.094,0.219,1.927,0.656,2.5
		c0.438,0.572,1.081,0.858,1.93,0.858c0.849,0,1.493-0.284,1.934-0.854c0.44-0.57,0.66-1.405,0.66-2.504
		c0-1.09-0.22-1.917-0.66-2.481c-0.44-0.565-1.09-0.848-1.949-0.848c-0.849,0-1.49,0.279-1.922,0.836
		C224.663,21.799,224.447,22.63,224.447,23.734z"/>
	<path fill="#FFFFFF" d="M239.104,28.023v-5.541c0-0.698-0.159-1.219-0.477-1.562c-0.318-0.344-0.815-0.516-1.492-0.516
		c-0.896,0-1.552,0.242-1.969,0.727c-0.417,0.484-0.625,1.284-0.625,2.399v4.492h-1.297V19.46h1.055l0.211,1.172h0.062
		c0.266-0.422,0.638-0.749,1.117-0.98s1.013-0.348,1.602-0.348c1.031,0,1.807,0.249,2.328,0.746
		c0.521,0.498,0.781,1.293,0.781,2.387v5.586H239.104z"/>
</g>
<g>
	<path fill="#FFFFFF" d="M271.068,28.023h-1.508L266.49,23l-3.125,5.023h-1.406l3.797-5.968l-3.539-5.453h1.469l2.836,4.523
		l2.859-4.523h1.414l-3.539,5.406L271.068,28.023z"/>
	<path fill="#FFFFFF" d="M276.49,19.32c1.125,0,1.999,0.384,2.621,1.152c0.622,0.769,0.934,1.855,0.934,3.262
		c0,1.406-0.314,2.498-0.941,3.276c-0.628,0.778-1.499,1.169-2.613,1.169c-0.558,0-1.066-0.104-1.527-0.31
		c-0.461-0.206-0.848-0.522-1.16-0.949h-0.094l-0.273,1.103h-0.93V15.867h1.297v2.953c0,0.662-0.021,1.255-0.062,1.781h0.062
		C274.406,19.747,275.302,19.32,276.49,19.32z M276.302,20.406c-0.886,0-1.523,0.254-1.914,0.762
		c-0.391,0.508-0.586,1.363-0.586,2.566s0.2,2.063,0.602,2.582c0.401,0.519,1.044,0.777,1.93,0.777c0.797,0,1.391-0.291,1.781-0.871
		c0.391-0.58,0.586-1.416,0.586-2.504c0-1.115-0.195-1.946-0.586-2.493C277.724,20.679,277.12,20.406,276.302,20.406z"/>
	<path fill="#FFFFFF" d="M289.701,23.734c0,1.396-0.352,2.484-1.055,3.27c-0.703,0.783-1.675,1.176-2.914,1.176
		c-0.766,0-1.445-0.18-2.039-0.539c-0.594-0.358-1.052-0.875-1.375-1.547c-0.323-0.672-0.484-1.459-0.484-2.359
		c0-1.396,0.349-2.482,1.047-3.261c0.698-0.778,1.667-1.168,2.906-1.168c1.198,0,2.149,0.398,2.855,1.195
		C289.348,21.296,289.701,22.375,289.701,23.734z M283.177,23.734c0,1.094,0.219,1.927,0.656,2.5
		c0.438,0.572,1.081,0.858,1.93,0.858c0.849,0,1.493-0.284,1.934-0.854c0.44-0.57,0.66-1.405,0.66-2.504
		c0-1.09-0.22-1.917-0.66-2.481c-0.44-0.565-1.09-0.848-1.949-0.848c-0.849,0-1.49,0.279-1.922,0.836
		C283.393,21.799,283.177,22.63,283.177,23.734z"/>
	<path fill="#FFFFFF" d="M294.037,23.641l-2.977-4.18h1.477l2.258,3.281l2.25-3.281h1.461l-2.977,4.18l3.133,4.383h-1.469
		l-2.398-3.469l-2.422,3.469h-1.469L294.037,23.641z"/>
</g>
<g>
	<path fill="#FFFFFF" d="M327.561,28.023h-1.516l-6.242-9.586h-0.062c0.083,1.125,0.125,2.156,0.125,3.094v6.492h-1.227V16.601h1.5
		l6.227,9.547h0.062c-0.011-0.142-0.034-0.594-0.07-1.355c-0.037-0.764-0.05-1.309-0.039-1.637v-6.555h1.242V28.023z"/>
	<path fill="#FFFFFF" d="M330.396,17.14c0-0.297,0.073-0.514,0.219-0.652c0.146-0.138,0.328-0.207,0.547-0.207
		c0.208,0,0.388,0.07,0.539,0.211c0.151,0.141,0.227,0.357,0.227,0.648c0,0.292-0.076,0.509-0.227,0.652
		c-0.151,0.144-0.331,0.215-0.539,0.215c-0.219,0-0.401-0.071-0.547-0.215C330.469,17.649,330.396,17.432,330.396,17.14z
		 M331.803,28.023h-1.297V19.46h1.297V28.023z"/>
	<path fill="#FFFFFF" d="M340.412,28.023v-5.541c0-0.698-0.159-1.219-0.477-1.562c-0.318-0.344-0.815-0.516-1.492-0.516
		c-0.896,0-1.552,0.242-1.969,0.727c-0.417,0.484-0.625,1.284-0.625,2.399v4.492h-1.297V19.46h1.055l0.211,1.172h0.062
		c0.266-0.422,0.638-0.749,1.117-0.98s1.013-0.348,1.602-0.348c1.031,0,1.807,0.249,2.328,0.746
		c0.521,0.498,0.781,1.293,0.781,2.387v5.586H340.412z"/>
	<path fill="#FFFFFF" d="M347.139,27.109c0.229,0,0.45-0.019,0.664-0.051c0.213-0.035,0.383-0.069,0.508-0.105v0.992
		c-0.141,0.066-0.348,0.123-0.621,0.168c-0.273,0.043-0.52,0.066-0.738,0.066c-1.656,0-2.484-0.873-2.484-2.617v-5.095h-1.227
		v-0.625l1.227-0.539l0.547-1.828h0.75v1.984h2.484v1.008h-2.484v5.04c0,0.516,0.122,0.911,0.367,1.188
		C346.375,26.971,346.711,27.109,347.139,27.109z"/>
	<path fill="#FFFFFF" d="M353.639,28.18c-1.266,0-2.265-0.386-2.996-1.156c-0.732-0.771-1.098-1.842-1.098-3.211
		c0-1.379,0.34-2.477,1.02-3.29s1.592-1.219,2.738-1.219c1.073,0,1.922,0.353,2.547,1.059c0.625,0.706,0.938,1.637,0.938,2.793v0.82
		h-5.898c0.026,1.004,0.28,1.768,0.762,2.289c0.481,0.521,1.16,0.78,2.035,0.78c0.922,0,1.833-0.192,2.734-0.578v1.156
		c-0.458,0.196-0.892,0.34-1.301,0.426C354.71,28.137,354.217,28.18,353.639,28.18z M353.287,20.39
		c-0.688,0-1.236,0.224-1.645,0.672c-0.409,0.448-0.65,1.068-0.723,1.859h4.477c0-0.817-0.183-1.444-0.547-1.879
		C354.485,20.608,353.964,20.39,353.287,20.39z"/>
	<path fill="#FFFFFF" d="M364.857,28.023v-5.541c0-0.698-0.159-1.219-0.477-1.562c-0.318-0.344-0.815-0.516-1.492-0.516
		c-0.896,0-1.552,0.242-1.969,0.727c-0.417,0.484-0.625,1.284-0.625,2.399v4.492h-1.297V19.46h1.055l0.211,1.172h0.062
		c0.266-0.422,0.638-0.749,1.117-0.98s1.013-0.348,1.602-0.348c1.031,0,1.807,0.249,2.328,0.746
		c0.521,0.498,0.781,1.293,0.781,2.387v5.586H364.857z"/>
	<path fill="#FFFFFF" d="M374.646,26.875h-0.07c-0.599,0.869-1.495,1.305-2.688,1.305c-1.12,0-1.991-0.383-2.613-1.147
		c-0.623-0.767-0.934-1.854-0.934-3.267c0-1.412,0.312-2.508,0.938-3.29c0.626-0.782,1.495-1.172,2.609-1.172
		c1.161,0,2.052,0.422,2.672,1.266h0.102l-0.055-0.617l-0.031-0.602v-3.484h1.297v12.156h-1.055L374.646,26.875z M372.053,27.094
		c0.885,0,1.527-0.24,1.926-0.723c0.398-0.482,0.598-1.26,0.598-2.332v-0.273c0-1.214-0.202-2.08-0.605-2.598
		c-0.404-0.518-1.048-0.777-1.934-0.777c-0.761,0-1.343,0.296-1.746,0.887c-0.404,0.591-0.605,1.426-0.605,2.504
		c0,1.094,0.2,1.919,0.602,2.477C370.688,26.814,371.276,27.094,372.053,27.094z"/>
	<path fill="#FFFFFF" d="M386.014,23.734c0,1.396-0.352,2.484-1.055,3.27c-0.703,0.783-1.675,1.176-2.914,1.176
		c-0.766,0-1.445-0.18-2.039-0.539c-0.594-0.358-1.052-0.875-1.375-1.547c-0.323-0.672-0.484-1.459-0.484-2.359
		c0-1.396,0.349-2.482,1.047-3.261c0.698-0.778,1.667-1.168,2.906-1.168c1.198,0,2.149,0.398,2.855,1.195
		C385.661,21.296,386.014,22.375,386.014,23.734z M379.49,23.734c0,1.094,0.219,1.927,0.656,2.5c0.438,0.572,1.081,0.858,1.93,0.858
		c0.849,0,1.493-0.284,1.934-0.854c0.44-0.57,0.66-1.405,0.66-2.504c0-1.09-0.22-1.917-0.66-2.481
		c-0.44-0.565-1.09-0.848-1.949-0.848c-0.849,0-1.49,0.279-1.922,0.836C379.706,21.799,379.49,22.63,379.49,23.734z"/>
</g>
<g>
	<path fill="#FFFFFF" d="M411.9,28.023l-3.875-10.125h-0.062c0.073,0.802,0.109,1.755,0.109,2.859v7.267h-1.228V16.601h2
		l3.617,9.422h0.062l3.648-9.422h1.984v11.422h-1.328v-7.36c0-0.844,0.036-1.76,0.109-2.75h-0.062l-3.906,10.11H411.9z"/>
	<path fill="#FFFFFF" d="M428.486,23.734c0,1.396-0.353,2.484-1.056,3.27c-0.702,0.783-1.675,1.176-2.914,1.176
		c-0.766,0-1.444-0.18-2.038-0.539c-0.595-0.358-1.053-0.875-1.375-1.547s-0.484-1.459-0.484-2.359c0-1.396,0.349-2.482,1.047-3.261
		c0.698-0.778,1.667-1.168,2.906-1.168c1.197,0,2.148,0.398,2.854,1.195C428.133,21.296,428.486,22.375,428.486,23.734z
		 M421.963,23.734c0,1.094,0.219,1.927,0.656,2.5c0.438,0.572,1.081,0.858,1.93,0.858c0.85,0,1.493-0.284,1.935-0.854
		c0.439-0.57,0.659-1.405,0.659-2.504c0-1.09-0.22-1.917-0.659-2.481c-0.44-0.565-1.091-0.848-1.949-0.848
		c-0.85,0-1.49,0.279-1.922,0.836C422.179,21.799,421.963,22.63,421.963,23.734z"/>
	<path fill="#FFFFFF" d="M432.635,28.023l-3.25-8.563h1.392l1.844,5.079c0.417,1.188,0.661,1.958,0.733,2.312h0.062
		c0.057-0.276,0.238-0.849,0.543-1.716c0.305-0.866,0.988-2.759,2.051-5.676h1.392l-3.25,8.563H432.635z"/>
	<path fill="#FFFFFF" d="M438.666,17.14c0-0.297,0.073-0.514,0.219-0.652c0.146-0.138,0.328-0.207,0.547-0.207
		c0.208,0,0.389,0.07,0.539,0.211c0.151,0.141,0.228,0.357,0.228,0.648c0,0.292-0.076,0.509-0.228,0.652
		c-0.15,0.144-0.331,0.215-0.539,0.215c-0.219,0-0.4-0.071-0.547-0.215C438.739,17.649,438.666,17.432,438.666,17.14z
		 M440.072,28.023h-1.297V19.46h1.297V28.023z"/>
	<path fill="#FFFFFF" d="M446.439,28.18c-1.267,0-2.266-0.386-2.996-1.156c-0.732-0.771-1.099-1.842-1.099-3.211
		c0-1.379,0.34-2.477,1.021-3.29c0.68-0.813,1.592-1.219,2.738-1.219c1.072,0,1.922,0.353,2.547,1.059
		c0.625,0.706,0.938,1.637,0.938,2.793v0.82h-5.898c0.026,1.004,0.28,1.768,0.763,2.289c0.48,0.521,1.16,0.78,2.035,0.78
		c0.922,0,1.833-0.192,2.733-0.578v1.156c-0.458,0.196-0.892,0.34-1.301,0.426C447.511,28.137,447.018,28.18,446.439,28.18z
		 M446.088,20.39c-0.688,0-1.236,0.224-1.645,0.672c-0.409,0.448-0.65,1.068-0.724,1.859h4.478c0-0.817-0.184-1.444-0.547-1.879
		C447.286,20.608,446.765,20.39,446.088,20.39z"/>
	<path fill="#FFFFFF" d="M457.322,25.688c0,0.797-0.297,1.412-0.892,1.845c-0.594,0.432-1.427,0.647-2.5,0.647
		c-1.136,0-2.021-0.18-2.655-0.539v-1.203c0.41,0.209,0.853,0.373,1.323,0.492c0.472,0.119,0.927,0.18,1.363,0.18
		c0.677,0,1.198-0.107,1.562-0.323c0.363-0.218,0.547-0.546,0.547-0.988c0-0.334-0.146-0.618-0.435-0.854
		c-0.289-0.237-0.853-0.519-1.69-0.84c-0.797-0.297-1.363-0.558-1.699-0.777c-0.336-0.223-0.586-0.473-0.75-0.754
		s-0.246-0.617-0.246-1.008c0-0.698,0.284-1.249,0.853-1.652c0.566-0.403,1.346-0.605,2.336-0.605c0.922,0,1.822,0.188,2.702,0.562
		l-0.461,1.055c-0.858-0.354-1.638-0.531-2.336-0.531c-0.614,0-1.078,0.097-1.391,0.289c-0.312,0.193-0.469,0.458-0.469,0.797
		c0,0.229,0.059,0.425,0.176,0.586c0.117,0.162,0.306,0.315,0.565,0.46c0.261,0.146,0.761,0.357,1.5,0.634
		c1.017,0.368,1.702,0.741,2.06,1.116C457.145,24.648,457.322,25.119,457.322,25.688z"/>
</g>
<g>
	<path fill="#FFFFFF" d="M479.177,28.023h-1.328V17.781h-3.616v-1.18h8.562v1.18h-3.617V28.023z"/>
	<path fill="#FFFFFF" d="M491.037,16.601h1.43l-4.117,11.422h-1.312l-4.094-11.422h1.405l2.625,7.391
		c0.303,0.849,0.542,1.674,0.72,2.477c0.188-0.844,0.432-1.686,0.733-2.523L491.037,16.601z"/>
</g>
<g>
	<path fill="#FFFFFF" d="M518.07,17.625c-1.255,0-2.246,0.418-2.974,1.254c-0.727,0.836-1.09,1.98-1.09,3.434
		c0,1.496,0.351,2.65,1.051,3.464s1.699,1.224,2.996,1.224c0.797,0,1.706-0.144,2.728-0.431v1.164
		c-0.792,0.298-1.77,0.445-2.931,0.445c-1.683,0-2.979-0.511-3.895-1.531c-0.914-1.021-1.371-2.472-1.371-4.352
		c0-1.177,0.22-2.208,0.66-3.094c0.439-0.885,1.075-1.567,1.906-2.047s1.809-0.719,2.934-0.719c1.198,0,2.245,0.219,3.141,0.656
		l-0.562,1.141C519.799,17.828,518.935,17.625,518.07,17.625z"/>
	<path fill="#FFFFFF" d="M530.469,23.734c0,1.396-0.352,2.484-1.055,3.27c-0.703,0.783-1.675,1.176-2.914,1.176
		c-0.766,0-1.445-0.18-2.039-0.539c-0.594-0.358-1.052-0.875-1.375-1.547s-0.484-1.459-0.484-2.359c0-1.396,0.35-2.482,1.048-3.261
		c0.697-0.778,1.667-1.168,2.905-1.168c1.198,0,2.149,0.398,2.855,1.195C530.116,21.296,530.469,22.375,530.469,23.734z
		 M523.945,23.734c0,1.094,0.219,1.927,0.655,2.5c0.438,0.572,1.081,0.858,1.931,0.858c0.849,0,1.493-0.284,1.934-0.854
		s0.66-1.405,0.66-2.504c0-1.09-0.22-1.917-0.66-2.481c-0.439-0.565-1.09-0.848-1.949-0.848c-0.849,0-1.489,0.279-1.922,0.836
		C524.161,21.799,523.945,22.63,523.945,23.734z"/>
	<path fill="#FFFFFF" d="M540.133,23.734c0,1.396-0.352,2.484-1.055,3.27c-0.703,0.783-1.675,1.176-2.914,1.176
		c-0.766,0-1.445-0.18-2.039-0.539c-0.594-0.358-1.052-0.875-1.375-1.547s-0.484-1.459-0.484-2.359c0-1.396,0.35-2.482,1.047-3.261
		c0.698-0.778,1.668-1.168,2.906-1.168c1.198,0,2.149,0.398,2.855,1.195C539.78,21.296,540.133,22.375,540.133,23.734z
		 M533.609,23.734c0,1.094,0.219,1.927,0.655,2.5c0.438,0.572,1.081,0.858,1.931,0.858c0.849,0,1.492-0.284,1.934-0.854
		c0.44-0.57,0.66-1.405,0.66-2.504c0-1.09-0.22-1.917-0.66-2.481c-0.439-0.565-1.09-0.848-1.949-0.848
		c-0.849,0-1.489,0.279-1.922,0.836C533.825,21.799,533.609,22.63,533.609,23.734z"/>
	<path fill="#FFFFFF" d="M543.703,28.023h-1.297V15.867h1.297V28.023z"/>
	<path fill="#FFFFFF" d="M557.25,24.984c0,1.005-0.365,1.789-1.094,2.352c-0.729,0.562-1.719,0.844-2.969,0.844
		c-1.354,0-2.396-0.175-3.125-0.522v-1.281c0.469,0.197,0.979,0.354,1.53,0.47c0.552,0.113,1.1,0.172,1.642,0.172
		c0.885,0,1.552-0.168,2-0.504c0.447-0.337,0.672-0.805,0.672-1.402c0-0.396-0.08-0.721-0.238-0.973
		c-0.159-0.254-0.425-0.486-0.797-0.699c-0.373-0.215-0.939-0.457-1.699-0.728c-1.062-0.38-1.822-0.831-2.276-1.352
		c-0.456-0.521-0.685-1.2-0.685-2.039c0-0.88,0.331-1.581,0.992-2.102c0.661-0.521,1.536-0.781,2.625-0.781
		c1.135,0,2.18,0.208,3.133,0.625l-0.414,1.156c-0.942-0.396-1.858-0.594-2.75-0.594c-0.703,0-1.253,0.151-1.647,0.453
		c-0.396,0.302-0.595,0.722-0.595,1.258c0,0.396,0.073,0.72,0.22,0.973c0.146,0.253,0.392,0.484,0.737,0.695
		c0.347,0.211,0.876,0.444,1.59,0.699c1.198,0.427,2.022,0.886,2.474,1.375C557.024,23.566,557.25,24.203,557.25,24.984z"/>
	<path fill="#FFFFFF" d="M562.156,27.109c0.229,0,0.45-0.019,0.664-0.051c0.213-0.035,0.383-0.069,0.508-0.105v0.992
		c-0.141,0.066-0.348,0.123-0.621,0.168c-0.273,0.043-0.52,0.066-0.738,0.066c-1.655,0-2.483-0.873-2.483-2.617v-5.095h-1.228
		v-0.625l1.228-0.539l0.547-1.828h0.75v1.984h2.483v1.008h-2.483v5.04c0,0.516,0.122,0.911,0.367,1.188
		C561.393,26.971,561.729,27.109,562.156,27.109z"/>
	<path fill="#FFFFFF" d="M566.258,19.46v5.556c0,0.696,0.159,1.219,0.478,1.562c0.316,0.344,0.814,0.516,1.491,0.516
		c0.896,0,1.552-0.245,1.966-0.733c0.414-0.49,0.62-1.289,0.62-2.398v-4.5h1.298v8.562h-1.07l-0.188-1.147h-0.069
		c-0.267,0.422-0.634,0.744-1.105,0.97c-0.472,0.223-1.009,0.336-1.612,0.336c-1.042,0-1.822-0.248-2.341-0.742
		c-0.519-0.496-0.776-1.287-0.776-2.375V19.46H566.258z"/>
	<path fill="#FFFFFF" d="M578.719,20.468h-2.18v7.556h-1.297v-7.556h-1.531v-0.586l1.531-0.469v-0.477
		c0-2.104,0.919-3.156,2.758-3.156c0.453,0,0.984,0.091,1.594,0.273l-0.336,1.039c-0.5-0.161-0.927-0.242-1.281-0.242
		c-0.489,0-0.852,0.163-1.086,0.488c-0.233,0.326-0.352,0.848-0.352,1.566v0.555h2.18V20.468z M584.141,20.468h-2.18v7.556h-1.297
		v-7.556h-1.531v-0.586l1.531-0.469v-0.477c0-2.104,0.919-3.156,2.758-3.156c0.453,0,0.984,0.091,1.594,0.273l-0.336,1.039
		c-0.5-0.161-0.927-0.242-1.28-0.242c-0.49,0-0.853,0.163-1.087,0.488c-0.233,0.326-0.352,0.848-0.352,1.566v0.555h2.18V20.468z"/>
</g>
<g>
	<path fill="#FFFFFF" d="M610.347,22.296c0,1.829-0.462,3.267-1.387,4.313s-2.21,1.57-3.854,1.57c-1.684,0-2.98-0.516-3.896-1.544
		c-0.914-1.028-1.371-2.479-1.371-4.356c0-1.859,0.458-3.301,1.375-4.324s2.219-1.535,3.906-1.535c1.641,0,2.922,0.521,3.844,1.562
		C609.886,19.026,610.347,20.463,610.347,22.296z M601.245,22.296c0,1.547,0.329,2.72,0.988,3.521
		c0.658,0.799,1.615,1.199,2.87,1.199c1.267,0,2.222-0.398,2.867-1.195c0.646-0.797,0.969-1.973,0.969-3.524
		c0-1.536-0.321-2.702-0.965-3.496s-1.595-1.191-2.854-1.191c-1.267,0-2.229,0.4-2.888,1.199
		C601.574,19.608,601.245,20.771,601.245,22.296z"/>
	<path fill="#FFFFFF" d="M616.558,20.468h-2.18v7.556h-1.297v-7.556h-1.531v-0.586l1.531-0.469v-0.477
		c0-2.104,0.919-3.156,2.758-3.156c0.453,0,0.984,0.091,1.594,0.273l-0.336,1.039c-0.5-0.161-0.927-0.242-1.28-0.242
		c-0.49,0-0.853,0.163-1.086,0.488c-0.234,0.326-0.353,0.848-0.353,1.566v0.555h2.18V20.468z M621.933,20.468h-2.18v7.556h-1.297
		v-7.556h-1.531v-0.586l1.531-0.469v-0.477c0-2.104,0.919-3.156,2.758-3.156c0.453,0,0.984,0.091,1.594,0.273l-0.336,1.039
		c-0.5-0.161-0.927-0.242-1.28-0.242c-0.49,0-0.853,0.163-1.086,0.488c-0.234,0.326-0.353,0.848-0.353,1.566v0.555h2.18V20.468z
		 M623.44,17.14c0-0.297,0.072-0.514,0.219-0.652c0.146-0.138,0.328-0.207,0.547-0.207c0.208,0,0.388,0.07,0.539,0.211
		c0.151,0.141,0.227,0.357,0.227,0.648c0,0.292-0.075,0.509-0.227,0.652c-0.151,0.144-0.331,0.215-0.539,0.215
		c-0.219,0-0.401-0.071-0.547-0.215C623.513,17.649,623.44,17.432,623.44,17.14z M624.847,28.023h-1.297V19.46h1.297V28.023z"/>
	<path fill="#FFFFFF" d="M631.034,28.18c-1.239,0-2.199-0.382-2.879-1.145c-0.681-0.764-1.021-1.844-1.021-3.238
		c0-1.433,0.345-2.54,1.035-3.321c0.69-0.781,1.673-1.172,2.949-1.172c0.411,0,0.822,0.044,1.233,0.133s0.734,0.193,0.97,0.312
		l-0.398,1.102c-0.286-0.114-0.599-0.209-0.938-0.285c-0.34-0.075-0.639-0.113-0.898-0.113c-1.739,0-2.609,1.109-2.609,3.329
		c0,1.052,0.212,1.858,0.638,2.422c0.425,0.563,1.054,0.844,1.887,0.844c0.714,0,1.445-0.153,2.195-0.461v1.147
		C632.625,28.031,631.904,28.18,631.034,28.18z"/>
	<path fill="#FFFFFF" d="M635.12,17.14c0-0.297,0.073-0.514,0.219-0.652c0.146-0.138,0.328-0.207,0.547-0.207
		c0.208,0,0.389,0.07,0.539,0.211c0.151,0.141,0.228,0.357,0.228,0.648c0,0.292-0.075,0.509-0.228,0.652
		c-0.15,0.144-0.331,0.215-0.539,0.215c-0.219,0-0.4-0.071-0.547-0.215C635.193,17.649,635.12,17.432,635.12,17.14z M636.526,28.023
		h-1.298V19.46h1.298V28.023z"/>
	<path fill="#FFFFFF" d="M644.542,28.023l-0.258-1.219h-0.062c-0.427,0.535-0.853,0.898-1.276,1.09
		c-0.426,0.188-0.954,0.285-1.59,0.285c-0.85,0-1.516-0.22-1.996-0.656c-0.481-0.438-0.724-1.062-0.724-1.867
		c0-1.729,1.383-2.637,4.148-2.719l1.453-0.047v-0.532c0-0.672-0.146-1.168-0.435-1.488c-0.289-0.32-0.751-0.48-1.387-0.48
		c-0.714,0-1.521,0.219-2.422,0.656l-0.398-0.992c0.422-0.229,0.884-0.409,1.388-0.539c0.503-0.13,1.007-0.195,1.512-0.195
		c1.021,0,1.776,0.227,2.27,0.68s0.738,1.18,0.738,2.18v5.844h-0.961V28.023z M641.612,27.109c0.808,0,1.44-0.223,1.901-0.664
		c0.461-0.443,0.691-1.062,0.691-1.859v-0.773l-1.297,0.056c-1.031,0.036-1.774,0.196-2.23,0.479s-0.684,0.726-0.684,1.324
		c0,0.469,0.142,0.825,0.426,1.07C640.705,26.986,641.102,27.109,641.612,27.109z"/>
	<path fill="#FFFFFF" d="M649.472,28.023h-1.297V15.867h1.297V28.023z"/>
	<path fill="#FFFFFF" d="M664.175,28.023h-1.508L659.597,23l-3.125,5.023h-1.405l3.797-5.968l-3.539-5.453h1.469l2.836,4.523
		l2.859-4.523h1.414l-3.539,5.406L664.175,28.023z"/>
	<path fill="#FFFFFF" d="M669.597,19.32c1.125,0,1.999,0.384,2.621,1.152c0.622,0.769,0.935,1.855,0.935,3.262
		c0,1.406-0.313,2.498-0.941,3.276s-1.499,1.169-2.613,1.169c-0.558,0-1.065-0.104-1.526-0.31c-0.461-0.206-0.849-0.522-1.16-0.949
		h-0.094l-0.273,1.103h-0.93V15.867h1.297v2.953c0,0.662-0.021,1.255-0.062,1.781h0.062C667.514,19.747,668.409,19.32,669.597,19.32
		z M669.409,20.406c-0.886,0-1.523,0.254-1.914,0.762c-0.392,0.508-0.586,1.363-0.586,2.566s0.2,2.063,0.602,2.582
		s1.044,0.777,1.931,0.777c0.797,0,1.391-0.291,1.78-0.871c0.392-0.58,0.586-1.416,0.586-2.504c0-1.115-0.194-1.946-0.586-2.493
		C670.831,20.679,670.227,20.406,669.409,20.406z"/>
	<path fill="#FFFFFF" d="M682.808,23.734c0,1.396-0.352,2.484-1.055,3.27c-0.703,0.783-1.675,1.176-2.914,1.176
		c-0.766,0-1.445-0.18-2.039-0.539c-0.594-0.358-1.052-0.875-1.375-1.547s-0.483-1.459-0.483-2.359c0-1.396,0.349-2.482,1.047-3.261
		c0.697-0.778,1.667-1.168,2.905-1.168c1.198,0,2.149,0.398,2.855,1.195S682.808,22.375,682.808,23.734z M676.284,23.734
		c0,1.094,0.219,1.927,0.656,2.5c0.438,0.572,1.081,0.858,1.93,0.858s1.493-0.284,1.934-0.854c0.441-0.57,0.66-1.405,0.66-2.504
		c0-1.09-0.22-1.917-0.66-2.481c-0.439-0.565-1.09-0.848-1.948-0.848c-0.85,0-1.489,0.279-1.923,0.836
		C676.5,21.799,676.284,22.63,676.284,23.734z"/>
	<path fill="#FFFFFF" d="M687.144,23.641l-2.977-4.18h1.477l2.259,3.281l2.25-3.281h1.461l-2.978,4.18l3.133,4.383H690.3
		l-2.397-3.469l-2.422,3.469h-1.47L687.144,23.641z"/>
</g>
<g>
	<path fill="#FFFFFF" d="M720.347,22.296c0,1.829-0.462,3.267-1.387,4.313s-2.21,1.57-3.854,1.57c-1.684,0-2.98-0.516-3.896-1.544
		c-0.914-1.028-1.371-2.479-1.371-4.356c0-1.859,0.458-3.301,1.375-4.324s2.219-1.535,3.906-1.535c1.641,0,2.922,0.521,3.844,1.562
		C719.886,19.026,720.347,20.463,720.347,22.296z M711.245,22.296c0,1.547,0.329,2.72,0.988,3.521
		c0.658,0.799,1.615,1.199,2.87,1.199c1.267,0,2.223-0.398,2.867-1.195c0.646-0.797,0.969-1.973,0.969-3.524
		c0-1.536-0.32-2.702-0.965-3.496c-0.644-0.794-1.595-1.191-2.854-1.191c-1.267,0-2.229,0.4-2.888,1.199
		C711.574,19.608,711.245,20.771,711.245,22.296z"/>
	<path fill="#FFFFFF" d="M726.558,20.468h-2.18v7.556h-1.297v-7.556h-1.531v-0.586l1.531-0.469v-0.477
		c0-2.104,0.919-3.156,2.758-3.156c0.453,0,0.984,0.091,1.594,0.273l-0.336,1.039c-0.5-0.161-0.927-0.242-1.28-0.242
		c-0.489,0-0.853,0.163-1.086,0.488c-0.234,0.326-0.353,0.848-0.353,1.566v0.555h2.18V20.468z M731.933,20.468h-2.18v7.556h-1.297
		v-7.556h-1.531v-0.586l1.531-0.469v-0.477c0-2.104,0.919-3.156,2.758-3.156c0.453,0,0.984,0.091,1.594,0.273l-0.336,1.039
		c-0.5-0.161-0.927-0.242-1.28-0.242c-0.489,0-0.853,0.163-1.086,0.488c-0.234,0.326-0.353,0.848-0.353,1.566v0.555h2.18V20.468z
		 M733.44,17.14c0-0.297,0.072-0.514,0.219-0.652c0.146-0.138,0.328-0.207,0.547-0.207c0.208,0,0.388,0.07,0.539,0.211
		c0.151,0.141,0.227,0.357,0.227,0.648c0,0.292-0.075,0.509-0.227,0.652c-0.151,0.144-0.331,0.215-0.539,0.215
		c-0.219,0-0.401-0.071-0.547-0.215C733.514,17.649,733.44,17.432,733.44,17.14z M734.847,28.023h-1.297V19.46h1.297V28.023z"/>
	<path fill="#FFFFFF" d="M741.034,28.18c-1.239,0-2.199-0.382-2.879-1.145c-0.681-0.764-1.021-1.844-1.021-3.238
		c0-1.433,0.345-2.54,1.035-3.321c0.69-0.781,1.673-1.172,2.949-1.172c0.411,0,0.822,0.044,1.233,0.133s0.734,0.193,0.97,0.312
		l-0.398,1.102c-0.286-0.114-0.599-0.209-0.938-0.285c-0.34-0.075-0.639-0.113-0.898-0.113c-1.739,0-2.609,1.109-2.609,3.329
		c0,1.052,0.212,1.858,0.638,2.422c0.425,0.563,1.054,0.844,1.887,0.844c0.714,0,1.445-0.153,2.195-0.461v1.147
		C742.625,28.031,741.904,28.18,741.034,28.18z"/>
	<path fill="#FFFFFF" d="M745.12,17.14c0-0.297,0.073-0.514,0.219-0.652c0.146-0.138,0.328-0.207,0.547-0.207
		c0.208,0,0.389,0.07,0.539,0.211c0.151,0.141,0.228,0.357,0.228,0.648c0,0.292-0.075,0.509-0.228,0.652
		c-0.15,0.144-0.331,0.215-0.539,0.215c-0.219,0-0.4-0.071-0.547-0.215C745.193,17.649,745.12,17.432,745.12,17.14z M746.526,28.023
		h-1.298V19.46h1.298V28.023z"/>
	<path fill="#FFFFFF" d="M754.542,28.023l-0.258-1.219h-0.062c-0.427,0.535-0.853,0.898-1.276,1.09
		c-0.426,0.188-0.954,0.285-1.59,0.285c-0.85,0-1.516-0.22-1.996-0.656c-0.481-0.438-0.724-1.062-0.724-1.867
		c0-1.729,1.383-2.637,4.148-2.719l1.453-0.047v-0.532c0-0.672-0.146-1.168-0.435-1.488c-0.289-0.32-0.751-0.48-1.387-0.48
		c-0.714,0-1.521,0.219-2.422,0.656l-0.398-0.992c0.422-0.229,0.884-0.409,1.388-0.539c0.503-0.13,1.007-0.195,1.512-0.195
		c1.021,0,1.776,0.227,2.27,0.68s0.738,1.18,0.738,2.18v5.844h-0.961V28.023z M751.612,27.109c0.808,0,1.44-0.223,1.901-0.664
		c0.461-0.443,0.691-1.062,0.691-1.859v-0.773l-1.297,0.056c-1.031,0.036-1.774,0.196-2.23,0.479s-0.684,0.726-0.684,1.324
		c0,0.469,0.142,0.825,0.426,1.07C750.705,26.986,751.102,27.109,751.612,27.109z"/>
	<path fill="#FFFFFF" d="M759.472,28.023h-1.297V15.867h1.297V28.023z"/>
	<path fill="#FFFFFF" d="M773.815,19.929c0,1.156-0.396,2.046-1.185,2.668c-0.789,0.623-1.918,0.934-3.387,0.934H767.9v4.492h-1.328
		V16.601h2.961C772.389,16.601,773.815,17.71,773.815,19.929z M767.901,22.39h1.194c1.178,0,2.028-0.19,2.556-0.57
		c0.525-0.38,0.789-0.989,0.789-1.828c0-0.755-0.247-1.317-0.742-1.688c-0.495-0.37-1.267-0.555-2.312-0.555h-1.483L767.901,22.39
		L767.901,22.39z"/>
	<path fill="#FFFFFF" d="M777.308,28.023h-1.297V15.867h1.297V28.023z"/>
	<path fill="#FFFFFF" d="M785.323,28.023l-0.258-1.219h-0.062c-0.427,0.535-0.853,0.898-1.277,1.09
		c-0.425,0.188-0.953,0.285-1.59,0.285c-0.849,0-1.515-0.22-1.996-0.656c-0.48-0.438-0.723-1.062-0.723-1.867
		c0-1.729,1.383-2.637,4.148-2.719l1.452-0.047v-0.532c0-0.672-0.145-1.168-0.434-1.488c-0.289-0.32-0.751-0.48-1.387-0.48
		c-0.714,0-1.521,0.219-2.422,0.656l-0.398-0.992c0.422-0.229,0.884-0.409,1.387-0.539c0.503-0.13,1.008-0.195,1.513-0.195
		c1.021,0,1.776,0.227,2.27,0.68s0.738,1.18,0.738,2.18v5.844h-0.961V28.023z M782.394,27.109c0.809,0,1.441-0.223,1.902-0.664
		c0.461-0.443,0.691-1.062,0.691-1.859v-0.773l-1.298,0.056c-1.03,0.036-1.773,0.196-2.229,0.479s-0.684,0.726-0.684,1.324
		c0,0.469,0.142,0.825,0.426,1.07C781.486,26.986,781.883,27.109,782.394,27.109z"/>
	<path fill="#FFFFFF" d="M787.597,19.46h1.392l1.875,4.883c0.411,1.114,0.667,1.919,0.766,2.414h0.062
		c0.066-0.266,0.21-0.721,0.426-1.362c0.216-0.645,0.923-2.623,2.121-5.935h1.391l-3.68,9.75c-0.364,0.963-0.79,1.646-1.277,2.051
		c-0.487,0.402-1.085,0.605-1.793,0.605c-0.396,0-0.786-0.046-1.172-0.134v-1.039c0.286,0.062,0.605,0.095,0.961,0.095
		c0.891,0,1.526-0.5,1.906-1.5l0.477-1.22L787.597,19.46z"/>
	<path fill="#FFFFFF" d="M802.542,25.688c0,0.797-0.297,1.412-0.891,1.845c-0.595,0.432-1.428,0.647-2.5,0.647
		c-1.137,0-2.021-0.18-2.656-0.539v-1.203c0.411,0.209,0.853,0.373,1.324,0.492s0.926,0.18,1.362,0.18
		c0.678,0,1.198-0.107,1.562-0.323c0.364-0.218,0.547-0.546,0.547-0.988c0-0.334-0.146-0.618-0.434-0.854
		c-0.289-0.237-0.854-0.519-1.691-0.84c-0.797-0.297-1.363-0.558-1.699-0.777c-0.336-0.223-0.586-0.473-0.75-0.754
		s-0.246-0.617-0.246-1.008c0-0.698,0.284-1.249,0.853-1.652c0.566-0.403,1.347-0.605,2.336-0.605c0.922,0,1.823,0.188,2.703,0.562
		l-0.461,1.055c-0.859-0.354-1.639-0.531-2.336-0.531c-0.614,0-1.078,0.097-1.392,0.289c-0.312,0.193-0.469,0.458-0.469,0.797
		c0,0.229,0.059,0.425,0.176,0.586c0.117,0.162,0.307,0.315,0.566,0.46c0.261,0.146,0.761,0.357,1.5,0.634
		c1.016,0.368,1.702,0.741,2.059,1.116C802.363,24.65,802.542,25.119,802.542,25.688z"/>
	<path fill="#FFFFFF" d="M807.417,27.109c0.229,0,0.45-0.019,0.664-0.051c0.214-0.035,0.383-0.069,0.508-0.105v0.992
		c-0.141,0.066-0.348,0.123-0.621,0.168c-0.272,0.043-0.52,0.066-0.737,0.066c-1.656,0-2.484-0.873-2.484-2.617v-5.095h-1.227
		v-0.625l1.227-0.539l0.547-1.828h0.75v1.984h2.484v1.008h-2.484v5.04c0,0.516,0.122,0.911,0.367,1.188
		C806.654,26.971,806.99,27.109,807.417,27.109z"/>
	<path fill="#FFFFFF" d="M815.565,28.023l-0.259-1.219h-0.062c-0.427,0.535-0.854,0.898-1.277,1.09
		c-0.425,0.188-0.954,0.285-1.59,0.285c-0.849,0-1.515-0.22-1.996-0.656c-0.48-0.438-0.723-1.062-0.723-1.867
		c0-1.729,1.383-2.637,4.147-2.719l1.453-0.047v-0.532c0-0.672-0.145-1.168-0.434-1.488c-0.289-0.32-0.751-0.48-1.387-0.48
		c-0.715,0-1.521,0.219-2.423,0.656l-0.397-0.992c0.422-0.229,0.884-0.409,1.387-0.539c0.503-0.13,1.007-0.195,1.512-0.195
		c1.021,0,1.777,0.227,2.271,0.68s0.738,1.18,0.738,2.18v5.844h-0.961V28.023z M812.636,27.109c0.809,0,1.441-0.223,1.902-0.664
		c0.461-0.443,0.69-1.062,0.69-1.859v-0.773l-1.297,0.056c-1.03,0.036-1.773,0.196-2.229,0.479s-0.685,0.726-0.685,1.324
		c0,0.469,0.143,0.825,0.427,1.07C811.729,26.986,812.125,27.109,812.636,27.109z"/>
	<path fill="#FFFFFF" d="M821.964,27.109c0.229,0,0.45-0.019,0.664-0.051c0.214-0.035,0.383-0.069,0.508-0.105v0.992
		c-0.141,0.066-0.348,0.123-0.621,0.168c-0.272,0.043-0.52,0.066-0.737,0.066c-1.656,0-2.484-0.873-2.484-2.617v-5.095h-1.227
		v-0.625l1.227-0.539l0.547-1.828h0.75v1.984h2.484v1.008h-2.484v5.04c0,0.516,0.122,0.911,0.367,1.188
		C821.201,26.971,821.537,27.109,821.964,27.109z"/>
	<path fill="#FFFFFF" d="M824.737,17.14c0-0.297,0.073-0.514,0.219-0.652c0.146-0.138,0.328-0.207,0.547-0.207
		c0.208,0,0.388,0.07,0.539,0.211c0.151,0.141,0.228,0.357,0.228,0.648c0,0.292-0.075,0.509-0.228,0.652
		c-0.151,0.144-0.331,0.215-0.539,0.215c-0.219,0-0.401-0.071-0.547-0.215C824.811,17.649,824.737,17.432,824.737,17.14z
		 M826.145,28.023h-1.298V19.46h1.298V28.023z"/>
	<path fill="#FFFFFF" d="M836.284,23.734c0,1.396-0.353,2.484-1.056,3.27c-0.702,0.783-1.675,1.176-2.914,1.176
		c-0.766,0-1.444-0.18-2.038-0.539c-0.595-0.358-1.053-0.875-1.375-1.547c-0.323-0.672-0.484-1.459-0.484-2.359
		c0-1.396,0.349-2.482,1.047-3.261c0.698-0.778,1.667-1.168,2.906-1.168c1.198,0,2.149,0.398,2.854,1.195
		C835.931,21.297,836.284,22.375,836.284,23.734z M829.761,23.734c0,1.094,0.22,1.927,0.656,2.5c0.438,0.572,1.081,0.858,1.93,0.858
		c0.85,0,1.493-0.284,1.935-0.854c0.44-0.57,0.66-1.405,0.66-2.504c0-1.09-0.221-1.917-0.66-2.481
		c-0.44-0.565-1.09-0.848-1.949-0.848c-0.849,0-1.489,0.279-1.922,0.836C829.977,21.799,829.761,22.63,829.761,23.734z"/>
	<path fill="#FFFFFF" d="M844.417,28.023v-5.541c0-0.698-0.159-1.219-0.478-1.562c-0.317-0.343-0.814-0.516-1.491-0.516
		c-0.896,0-1.552,0.242-1.97,0.727c-0.416,0.485-0.625,1.284-0.625,2.399v4.492h-1.297V19.46h1.056l0.211,1.172h0.062
		c0.267-0.422,0.639-0.749,1.117-0.98s1.013-0.348,1.602-0.348c1.031,0,1.809,0.249,2.328,0.746
		c0.521,0.498,0.781,1.293,0.781,2.387v5.586H844.417z"/>
</g>
<g>
	<path fill="#FFFFFF" d="M870.564,22.039h3.883v5.555c-0.604,0.192-1.219,0.338-1.844,0.438c-0.625,0.098-1.351,0.147-2.173,0.147
		c-1.729,0-3.075-0.515-4.038-1.543c-0.965-1.029-1.445-2.471-1.445-4.325c0-1.188,0.238-2.228,0.715-3.121s1.162-1.575,2.059-2.047
		c0.896-0.471,1.945-0.707,3.148-0.707c1.219,0,2.354,0.224,3.406,0.672l-0.517,1.172c-1.03-0.438-2.022-0.656-2.977-0.656
		c-1.392,0-2.478,0.414-3.258,1.242c-0.781,0.828-1.173,1.977-1.173,3.445c0,1.542,0.377,2.711,1.13,3.508
		c0.752,0.797,1.856,1.195,3.315,1.195c0.791,0,1.564-0.093,2.32-0.273v-3.516h-2.555v-1.188H870.564z"/>
	<path fill="#FFFFFF" d="M882.26,28.023l-0.258-1.219h-0.062c-0.428,0.535-0.854,0.898-1.276,1.09
		c-0.425,0.188-0.955,0.285-1.59,0.285c-0.851,0-1.516-0.22-1.996-0.656c-0.482-0.438-0.724-1.062-0.724-1.867
		c0-1.729,1.384-2.637,4.148-2.719l1.453-0.047v-0.532c0-0.672-0.145-1.168-0.434-1.488c-0.289-0.32-0.752-0.48-1.388-0.48
		c-0.714,0-1.521,0.219-2.422,0.656l-0.397-0.992c0.422-0.229,0.884-0.409,1.387-0.539c0.502-0.13,1.006-0.195,1.512-0.195
		c1.021,0,1.777,0.227,2.271,0.68s0.737,1.18,0.737,2.18v5.844h-0.961V28.023z M879.33,27.109c0.807,0,1.441-0.223,1.902-0.664
		c0.461-0.443,0.69-1.062,0.69-1.859v-0.773l-1.297,0.056c-1.031,0.036-1.775,0.196-2.229,0.479
		c-0.457,0.283-0.685,0.726-0.685,1.324c0,0.469,0.142,0.825,0.426,1.07C878.422,26.986,878.819,27.109,879.33,27.109z"/>
	<path fill="#FFFFFF" d="M896.807,28.023v-5.571c0-0.682-0.146-1.194-0.438-1.535s-0.745-0.512-1.359-0.512
		c-0.808,0-1.404,0.232-1.789,0.695c-0.386,0.464-0.578,1.177-0.578,2.141v4.78h-1.297v-5.57c0-0.682-0.146-1.194-0.438-1.535
		s-0.748-0.512-1.367-0.512c-0.812,0-1.408,0.244-1.785,0.73c-0.378,0.487-0.565,1.285-0.565,2.396v4.492h-1.298V19.46h1.056
		l0.211,1.172h0.062c0.244-0.417,0.59-0.742,1.035-0.977c0.445-0.235,0.943-0.352,1.496-0.352c1.338,0,2.213,0.484,2.625,1.453
		h0.062c0.255-0.448,0.625-0.802,1.108-1.062c0.484-0.26,1.036-0.391,1.656-0.391c0.969,0,1.692,0.249,2.176,0.746
		c0.481,0.498,0.724,1.293,0.724,2.387v5.585h-1.297V28.023z"/>
	<path fill="#FFFFFF" d="M904.393,28.18c-1.266,0-2.265-0.386-2.996-1.156s-1.098-1.842-1.098-3.211c0-1.379,0.34-2.477,1.021-3.29
		c0.68-0.813,1.592-1.219,2.737-1.219c1.072,0,1.922,0.353,2.547,1.059c0.625,0.706,0.938,1.637,0.938,2.793v0.82h-5.897
		c0.024,1.004,0.278,1.768,0.762,2.289c0.48,0.521,1.16,0.78,2.035,0.78c0.922,0,1.832-0.192,2.733-0.578v1.156
		c-0.459,0.196-0.893,0.34-1.301,0.426C905.464,28.137,904.971,28.18,904.393,28.18z M904.041,20.39
		c-0.688,0-1.236,0.224-1.645,0.672c-0.409,0.448-0.65,1.068-0.724,1.859h4.478c0-0.817-0.184-1.444-0.547-1.879
		C905.238,20.608,904.718,20.39,904.041,20.39z"/>
	<path fill="#FFFFFF" d="M915.275,25.688c0,0.797-0.297,1.412-0.892,1.845c-0.594,0.432-1.428,0.647-2.5,0.647
		c-1.136,0-2.021-0.18-2.655-0.539v-1.203c0.41,0.209,0.853,0.373,1.323,0.492c0.472,0.119,0.927,0.18,1.363,0.18
		c0.677,0,1.197-0.107,1.562-0.323c0.364-0.218,0.547-0.546,0.547-0.988c0-0.334-0.145-0.618-0.434-0.854
		c-0.289-0.237-0.854-0.519-1.691-0.84c-0.797-0.297-1.362-0.558-1.698-0.777c-0.336-0.223-0.586-0.473-0.75-0.754
		s-0.246-0.617-0.246-1.008c0-0.698,0.283-1.249,0.852-1.652c0.567-0.403,1.347-0.605,2.337-0.605c0.922,0,1.821,0.188,2.702,0.562
		l-0.461,1.055c-0.858-0.354-1.639-0.531-2.336-0.531c-0.614,0-1.078,0.097-1.391,0.289c-0.312,0.193-0.47,0.458-0.47,0.797
		c0,0.229,0.06,0.425,0.177,0.586c0.117,0.162,0.306,0.315,0.565,0.46c0.261,0.146,0.761,0.357,1.5,0.634
		c1.017,0.368,1.701,0.741,2.06,1.116C915.097,24.648,915.275,25.119,915.275,25.688z"/>
	<path fill="#FFFFFF" d="M928.299,28.023v-5.571c0-0.682-0.146-1.194-0.438-1.535s-0.745-0.512-1.359-0.512
		c-0.808,0-1.404,0.232-1.789,0.695c-0.386,0.464-0.578,1.177-0.578,2.141v4.78h-1.297v-5.57c0-0.682-0.146-1.194-0.438-1.535
		s-0.748-0.512-1.367-0.512c-0.812,0-1.408,0.244-1.785,0.73c-0.378,0.487-0.566,1.285-0.566,2.396v4.492h-1.297V19.46h1.056
		l0.211,1.172h0.062c0.244-0.417,0.59-0.742,1.035-0.977c0.445-0.235,0.943-0.352,1.496-0.352c1.338,0,2.213,0.484,2.625,1.453
		h0.062c0.255-0.448,0.625-0.802,1.109-1.062c0.484-0.26,1.036-0.391,1.656-0.391c0.969,0,1.692,0.249,2.176,0.746
		c0.481,0.498,0.723,1.293,0.723,2.387v5.585h-1.296V28.023z"/>
	<path fill="#FFFFFF" d="M937.533,28.023l-0.258-1.219h-0.062c-0.428,0.535-0.854,0.898-1.277,1.09
		c-0.425,0.188-0.955,0.285-1.59,0.285c-0.85,0-1.515-0.22-1.996-0.656c-0.481-0.438-0.723-1.062-0.723-1.867
		c0-1.729,1.383-2.637,4.148-2.719l1.453-0.047v-0.532c0-0.672-0.146-1.168-0.435-1.488c-0.289-0.32-0.752-0.48-1.387-0.48
		c-0.714,0-1.521,0.219-2.422,0.656l-0.398-0.992c0.422-0.229,0.884-0.409,1.387-0.539c0.503-0.13,1.007-0.195,1.513-0.195
		c1.021,0,1.776,0.227,2.27,0.68s0.738,1.18,0.738,2.18v5.844h-0.961V28.023z M934.604,27.109c0.808,0,1.441-0.223,1.902-0.664
		c0.461-0.443,0.691-1.062,0.691-1.859v-0.773l-1.297,0.056c-1.031,0.036-1.775,0.196-2.23,0.479
		c-0.456,0.283-0.684,0.726-0.684,1.324c0,0.469,0.142,0.825,0.426,1.07C933.695,26.986,934.093,27.109,934.604,27.109z"/>
	<path fill="#FFFFFF" d="M946.689,25.688c0,0.797-0.297,1.412-0.892,1.845c-0.594,0.432-1.428,0.647-2.5,0.647
		c-1.136,0-2.021-0.18-2.655-0.539v-1.203c0.41,0.209,0.853,0.373,1.323,0.492c0.472,0.119,0.927,0.18,1.363,0.18
		c0.677,0,1.197-0.107,1.562-0.323c0.364-0.218,0.547-0.546,0.547-0.988c0-0.334-0.145-0.618-0.434-0.854
		c-0.289-0.237-0.854-0.519-1.691-0.84c-0.797-0.297-1.362-0.558-1.698-0.777c-0.336-0.223-0.586-0.473-0.75-0.754
		s-0.246-0.617-0.246-1.008c0-0.698,0.283-1.249,0.852-1.652c0.567-0.403,1.347-0.605,2.336-0.605c0.923,0,1.822,0.188,2.703,0.562
		l-0.461,1.055c-0.858-0.354-1.639-0.531-2.336-0.531c-0.615,0-1.078,0.097-1.391,0.289c-0.312,0.193-0.47,0.458-0.47,0.797
		c0,0.229,0.06,0.425,0.177,0.586c0.116,0.162,0.306,0.315,0.565,0.46c0.26,0.146,0.76,0.357,1.5,0.634
		c1.017,0.368,1.701,0.741,2.06,1.116C946.511,24.648,946.689,25.119,946.689,25.688z"/>
	<path fill="#FFFFFF" d="M951.564,27.109c0.229,0,0.449-0.019,0.664-0.051c0.213-0.035,0.383-0.069,0.508-0.105v0.992
		c-0.142,0.066-0.349,0.123-0.621,0.168c-0.273,0.043-0.521,0.066-0.738,0.066c-1.656,0-2.484-0.873-2.484-2.617v-5.095h-1.227
		v-0.625l1.227-0.539l0.548-1.828h0.75v1.984h2.483v1.008h-2.483v5.04c0,0.516,0.122,0.911,0.366,1.188
		C950.801,26.971,951.137,27.109,951.564,27.109z"/>
	<path fill="#FFFFFF" d="M958.064,28.18c-1.267,0-2.266-0.386-2.996-1.156c-0.732-0.771-1.099-1.842-1.099-3.211
		c0-1.379,0.341-2.477,1.021-3.29s1.592-1.219,2.738-1.219c1.071,0,1.922,0.353,2.547,1.059c0.625,0.706,0.938,1.637,0.938,2.793
		v0.82h-5.898c0.025,1.004,0.279,1.768,0.763,2.289c0.481,0.521,1.16,0.78,2.035,0.78c0.922,0,1.833-0.192,2.733-0.578v1.156
		c-0.459,0.196-0.893,0.34-1.301,0.426C959.136,28.137,958.643,28.18,958.064,28.18z M957.713,20.39
		c-0.688,0-1.236,0.224-1.645,0.672c-0.409,0.448-0.65,1.068-0.724,1.859h4.478c0-0.817-0.184-1.444-0.547-1.879
		C958.91,20.608,958.39,20.39,957.713,20.39z"/>
	<path fill="#FFFFFF" d="M967.33,19.304c0.38,0,0.721,0.031,1.023,0.094l-0.181,1.203c-0.354-0.078-0.667-0.117-0.938-0.117
		c-0.693,0-1.285,0.281-1.777,0.844s-0.738,1.263-0.738,2.102v4.594h-1.297V19.46h1.07l0.147,1.586h0.062
		c0.317-0.557,0.7-0.987,1.148-1.289C966.301,19.456,966.793,19.304,967.33,19.304z"/>
</g>
<g>
	<path fill="#FFFFFF" d="M990.299,28.023h-6.367V16.601h6.367v1.18h-5.039v3.68h4.734v1.172h-4.734v4.204h5.039V28.023z"/>
	<path fill="#FFFFFF" d="M998.463,26.875h-0.07c-0.6,0.869-1.494,1.305-2.688,1.305c-1.12,0-1.991-0.383-2.613-1.147
		c-0.623-0.767-0.934-1.854-0.934-3.267c0-1.412,0.312-2.508,0.938-3.29c0.626-0.782,1.494-1.172,2.609-1.172
		c1.161,0,2.052,0.422,2.672,1.266h0.102l-0.055-0.617l-0.031-0.602v-3.484h1.297v12.156h-1.055L998.463,26.875z M995.869,27.094
		c0.885,0,1.527-0.24,1.926-0.723s0.598-1.26,0.598-2.332v-0.273c0-1.214-0.201-2.08-0.604-2.598
		c-0.404-0.518-1.049-0.777-1.935-0.777c-0.761,0-1.343,0.296-1.745,0.887c-0.404,0.591-0.605,1.426-0.605,2.504
		c0,1.094,0.2,1.919,0.603,2.477C994.504,26.814,995.093,27.094,995.869,27.094z"/>
	<path fill="#FFFFFF" d="M1009.447,19.46v0.82l-1.586,0.188c0.146,0.183,0.274,0.421,0.391,0.715
		c0.114,0.294,0.172,0.626,0.172,0.996c0,0.838-0.287,1.508-0.859,2.008s-1.358,0.75-2.358,0.75c-0.256,0-0.495-0.021-0.719-0.062
		c-0.554,0.291-0.828,0.658-0.828,1.102c0,0.234,0.096,0.407,0.289,0.521c0.191,0.11,0.522,0.168,0.991,0.168h1.517
		c0.927,0,1.639,0.194,2.137,0.586c0.497,0.392,0.746,0.957,0.746,1.703c0,0.946-0.381,1.67-1.141,2.168
		c-0.761,0.496-1.87,0.746-3.328,0.746c-1.12,0-1.983-0.209-2.59-0.625c-0.607-0.418-0.91-1.007-0.91-1.767
		c0-0.521,0.166-0.973,0.5-1.352c0.333-0.381,0.802-0.639,1.406-0.773c-0.22-0.1-0.402-0.252-0.552-0.461
		c-0.147-0.209-0.223-0.451-0.223-0.727c0-0.312,0.083-0.586,0.25-0.82c0.166-0.234,0.43-0.461,0.789-0.68
		c-0.443-0.184-0.804-0.492-1.082-0.93c-0.279-0.438-0.418-0.938-0.418-1.5c0-0.938,0.281-1.66,0.844-2.168
		c0.563-0.508,1.359-0.762,2.391-0.762c0.447,0,0.853,0.052,1.212,0.156H1009.447z M1002.619,29.461
		c0,0.463,0.195,0.814,0.586,1.055c0.391,0.238,0.95,0.359,1.68,0.359c1.088,0,1.896-0.164,2.418-0.488
		c0.523-0.326,0.785-0.768,0.785-1.324c0-0.465-0.144-0.785-0.43-0.965c-0.287-0.18-0.826-0.27-1.617-0.27h-1.555
		c-0.59,0-1.047,0.141-1.375,0.422S1002.619,28.934,1002.619,29.461z M1003.322,22.203c0,0.599,0.169,1.052,0.508,1.359
		c0.338,0.308,0.81,0.461,1.414,0.461c1.266,0,1.898-0.614,1.898-1.843c0-1.286-0.642-1.93-1.923-1.93
		c-0.608,0-1.077,0.164-1.405,0.492C1003.486,21.07,1003.322,21.557,1003.322,22.203z"/>
	<path fill="#FFFFFF" d="M1014.822,28.18c-1.267,0-2.266-0.386-2.996-1.156c-0.732-0.771-1.098-1.842-1.098-3.211
		c0-1.379,0.34-2.477,1.02-3.29s1.592-1.219,2.738-1.219c1.072,0,1.922,0.353,2.547,1.059c0.625,0.706,0.938,1.637,0.938,2.793v0.82
		h-5.897c0.024,1.004,0.278,1.768,0.762,2.289c0.481,0.521,1.16,0.78,2.035,0.78c0.922,0,1.833-0.192,2.733-0.578v1.156
		c-0.459,0.196-0.893,0.34-1.301,0.426C1015.895,28.137,1015.4,28.18,1014.822,28.18z M1014.471,20.39
		c-0.688,0-1.235,0.224-1.645,0.672s-0.65,1.068-0.723,1.859h4.477c0-0.817-0.184-1.444-0.547-1.879
		C1015.668,20.608,1015.146,20.39,1014.471,20.39z"/>
</g>
<g>
	<path fill="#FFFFFF" d="M1045.77,24.984c0,1.005-0.364,1.789-1.094,2.352c-0.729,0.562-1.719,0.844-2.969,0.844
		c-1.354,0-2.396-0.175-3.125-0.522v-1.281c0.469,0.197,0.979,0.354,1.531,0.47c0.552,0.113,1.099,0.172,1.641,0.172
		c0.885,0,1.552-0.168,2-0.504c0.447-0.337,0.672-0.805,0.672-1.402c0-0.396-0.08-0.721-0.238-0.973
		c-0.158-0.254-0.425-0.486-0.797-0.699c-0.373-0.215-0.938-0.457-1.698-0.728c-1.062-0.38-1.822-0.831-2.277-1.352
		c-0.456-0.521-0.684-1.2-0.684-2.039c0-0.88,0.329-1.581,0.991-2.102c0.661-0.521,1.536-0.781,2.625-0.781
		c1.136,0,2.181,0.208,3.134,0.625l-0.414,1.156c-0.943-0.396-1.859-0.594-2.75-0.594c-0.703,0-1.253,0.151-1.648,0.453
		c-0.396,0.302-0.594,0.722-0.594,1.258c0,0.396,0.072,0.72,0.219,0.973s0.393,0.484,0.738,0.695s0.876,0.444,1.59,0.699
		c1.197,0.427,2.021,0.886,2.474,1.375C1045.544,23.566,1045.77,24.203,1045.77,24.984z"/>
	<path fill="#FFFFFF" d="M1049.434,28.023h-1.328V16.601h6.367v1.18h-5.039v4.18h4.734v1.18h-4.734V28.023z"/>
	<path fill="#FFFFFF" d="M1063.965,28.023h-1.508l-3.07-5.024l-3.125,5.024h-1.406l3.798-5.969l-3.539-5.453h1.469l2.836,4.523
		l2.859-4.523h1.414l-3.539,5.406L1063.965,28.023z"/>
</g>
<g>
	<path fill="#FFFFFF" d="M1090.155,28.023h-1.328V17.781h-3.617v-1.18h8.562v1.18h-3.617V28.023L1090.155,28.023z"/>
	<path fill="#FFFFFF" d="M1102.688,23.734c0,1.396-0.353,2.484-1.056,3.27c-0.703,0.783-1.675,1.176-2.914,1.176
		c-0.766,0-1.444-0.18-2.039-0.539c-0.594-0.358-1.052-0.875-1.375-1.547c-0.322-0.672-0.483-1.459-0.483-2.359
		c0-1.396,0.349-2.482,1.047-3.261c0.698-0.778,1.667-1.168,2.906-1.168c1.197,0,2.148,0.398,2.854,1.195
		S1102.688,22.375,1102.688,23.734z M1096.163,23.734c0,1.094,0.219,1.927,0.656,2.5c0.438,0.572,1.081,0.858,1.93,0.858
		s1.493-0.284,1.934-0.854c0.441-0.57,0.66-1.405,0.66-2.504c0-1.09-0.22-1.917-0.66-2.481c-0.439-0.565-1.09-0.848-1.948-0.848
		c-0.85,0-1.489,0.279-1.922,0.836C1096.379,21.799,1096.163,22.63,1096.163,23.734z"/>
	<path fill="#FFFFFF" d="M1107.726,27.109c0.229,0,0.45-0.019,0.664-0.051c0.214-0.035,0.384-0.069,0.509-0.105v0.992
		c-0.142,0.066-0.349,0.123-0.621,0.168c-0.273,0.043-0.521,0.066-0.738,0.066c-1.656,0-2.484-0.873-2.484-2.617v-5.095h-1.227
		v-0.625l1.227-0.539l0.547-1.828h0.75v1.984h2.484v1.008h-2.484v5.04c0,0.516,0.122,0.911,0.367,1.188
		C1106.963,26.971,1107.299,27.109,1107.726,27.109z"/>
	<path fill="#FFFFFF" d="M1115.874,28.023l-0.258-1.219h-0.062c-0.427,0.535-0.853,0.898-1.276,1.09
		c-0.426,0.188-0.954,0.285-1.59,0.285c-0.85,0-1.516-0.22-1.996-0.656c-0.481-0.438-0.724-1.062-0.724-1.867
		c0-1.729,1.384-2.637,4.148-2.719l1.453-0.047v-0.532c0-0.672-0.146-1.168-0.435-1.488c-0.289-0.32-0.751-0.48-1.387-0.48
		c-0.714,0-1.521,0.219-2.422,0.656l-0.398-0.992c0.422-0.229,0.885-0.409,1.388-0.539c0.503-0.13,1.007-0.195,1.512-0.195
		c1.021,0,1.776,0.227,2.27,0.68s0.738,1.18,0.738,2.18v5.844h-0.961V28.023z M1112.944,27.109c0.808,0,1.44-0.223,1.901-0.664
		c0.461-0.443,0.691-1.062,0.691-1.859v-0.773l-1.297,0.056c-1.031,0.036-1.774,0.196-2.23,0.479s-0.684,0.726-0.684,1.324
		c0,0.469,0.142,0.825,0.426,1.07C1112.037,26.986,1112.434,27.109,1112.944,27.109z"/>
	<path fill="#FFFFFF" d="M1120.804,28.023h-1.297V15.867h1.297V28.023z"/>
	<path fill="#FFFFFF" d="M1129.233,28.023h-1.328V16.601h6.366v1.18h-5.038v4.18h4.733v1.18h-4.733V28.023z"/>
	<path fill="#FFFFFF" d="M1135.858,17.14c0-0.297,0.072-0.514,0.219-0.652c0.146-0.138,0.328-0.207,0.547-0.207
		c0.208,0,0.388,0.07,0.539,0.211c0.151,0.141,0.227,0.357,0.227,0.648c0,0.292-0.074,0.509-0.227,0.652
		c-0.151,0.144-0.331,0.215-0.539,0.215c-0.219,0-0.401-0.071-0.547-0.215C1135.932,17.649,1135.858,17.432,1135.858,17.14z
		 M1137.265,28.023h-1.297V19.46h1.297V28.023z"/>
	<path fill="#FFFFFF" d="M1141.312,28.023h-1.298V15.867h1.298V28.023z"/>
	<path fill="#FFFFFF" d="M1154.976,28.023v-5.571c0-0.682-0.146-1.194-0.438-1.535s-0.745-0.512-1.359-0.512
		c-0.808,0-1.402,0.232-1.789,0.695c-0.386,0.464-0.577,1.177-0.577,2.141v4.78h-1.298v-5.57c0-0.682-0.146-1.194-0.438-1.535
		s-0.747-0.512-1.367-0.512c-0.812,0-1.407,0.244-1.785,0.73c-0.378,0.487-0.565,1.285-0.565,2.396v4.492h-1.297V19.46h1.055
		l0.211,1.172h0.062c0.244-0.417,0.59-0.742,1.034-0.977c0.445-0.235,0.944-0.352,1.496-0.352c1.339,0,2.214,0.484,2.625,1.453
		h0.062c0.255-0.448,0.625-0.802,1.108-1.062c0.484-0.26,1.036-0.391,1.656-0.391c0.969,0,1.694,0.249,2.176,0.746
		c0.481,0.498,0.724,1.293,0.724,2.387v5.585h-1.297V28.023z"/>
</g>
</svg>
